<?xml version="1.0" encoding="us-ascii" standalone="no"?><svg xmlns="http://www.w3.org/2000/svg" xmlns:xlink="http://www.w3.org/1999/xlink" contentStyleType="text/css" height="1109px" preserveAspectRatio="none" style="width:1768px;height:1109px;background:#FEFEFE;" version="1.1" viewBox="0 0 1768 1109" width="1768px" zoomAndPan="magnify"><defs/><g><rect fill="#FEFEFE" height="1109" style="stroke:none;stroke-width:1.0;" width="1768" x="0" y="0"/><text fill="#000000" font-family="Verdana" font-size="22" font-weight="bold" lengthAdjust="spacing" textLength="641" x="559.192" y="37.1182">&#1057;&#1093;&#1077;&#1084;&#1072; &#1080;&#1085;&#1090;&#1077;&#1075;&#1088;&#1072;&#1094;&#1080;&#1080; &#1087;&#1088;&#1080;&#1083;&#1086;&#1078;&#1077;&#1085;&#1080;&#1081; &#1073;&#1072;&#1085;&#1082;&#1072; "&#1057;&#1090;&#1072;&#1085;&#1076;&#1072;&#1088;&#1090;"</text><!--cluster ??????? ???????--><g id="cluster_&#1042;&#1085;&#1077;&#1096;&#1085;&#1080;&#1077; &#1089;&#1080;&#1089;&#1090;&#1077;&#1084;&#1099;"><path d="M329.384,892.6473 L475.384,892.6473 A3.75,3.75 0 0 1 477.884,895.1473 L484.884,915.662 L896.384,915.662 A2.5,2.5 0 0 1 898.884,918.162 L898.884,996.1773 A2.5,2.5 0 0 1 896.384,998.6773 L329.384,998.6773 A2.5,2.5 0 0 1 326.884,996.1773 L326.884,895.1473 A2.5,2.5 0 0 1 329.384,892.6473 " fill="#F0F0F0" style="stroke:#000000;stroke-width:1.0;"/><line style="stroke:#000000;stroke-width:1.0;" x1="326.884" x2="484.884" y1="915.662" y2="915.662"/><text fill="#000000" font-family="Verdana" font-size="14" font-weight="bold" lengthAdjust="spacing" textLength="145" x="330.884" y="908.7225">&#1042;&#1085;&#1077;&#1096;&#1085;&#1080;&#1077; &#1089;&#1080;&#1089;&#1090;&#1077;&#1084;&#1099;</text></g><!--cluster ?????-??????? ???????--><g id="cluster_&#1060;&#1088;&#1086;&#1085;&#1090;-&#1086;&#1092;&#1080;&#1089;&#1085;&#1099;&#1077; &#1089;&#1080;&#1089;&#1090;&#1077;&#1084;&#1099;"><path d="M604.384,370.7873 L808.384,370.7873 A3.75,3.75 0 0 1 810.884,373.2873 L817.884,393.802 L1138.384,393.802 A2.5,2.5 0 0 1 1140.884,396.302 L1140.884,671.7273 A2.5,2.5 0 0 1 1138.384,674.2273 L604.384,674.2273 A2.5,2.5 0 0 1 601.884,671.7273 L601.884,373.2873 A2.5,2.5 0 0 1 604.384,370.7873 " fill="#E6F3FF" style="stroke:#000000;stroke-width:1.0;"/><line style="stroke:#000000;stroke-width:1.0;" x1="601.884" x2="817.884" y1="393.802" y2="393.802"/><text fill="#000000" font-family="Verdana" font-size="14" font-weight="bold" lengthAdjust="spacing" textLength="203" x="605.884" y="386.8625">&#1060;&#1088;&#1086;&#1085;&#1090;-&#1086;&#1092;&#1080;&#1089;&#1085;&#1099;&#1077; &#1089;&#1080;&#1089;&#1090;&#1077;&#1084;&#1099;</text></g><!--cluster Core Banking--><g id="cluster_Core Banking"><path d="M325.384,572.2073 L431.384,572.2073 A3.75,3.75 0 0 1 433.884,574.7073 L440.884,595.222 L575.384,595.222 A2.5,2.5 0 0 1 577.884,597.722 L577.884,841.1473 A2.5,2.5 0 0 1 575.384,843.6473 L325.384,843.6473 A2.5,2.5 0 0 1 322.884,841.1473 L322.884,574.7073 A2.5,2.5 0 0 1 325.384,572.2073 " fill="#FFE6E6" style="stroke:#000000;stroke-width:1.0;"/><line style="stroke:#000000;stroke-width:1.0;" x1="322.884" x2="440.884" y1="595.222" y2="595.222"/><text fill="#000000" font-family="Verdana" font-size="14" font-weight="bold" lengthAdjust="spacing" textLength="105" x="326.884" y="588.2825">Core Banking</text></g><!--cluster ???-??????? ???????--><g id="cluster_&#1041;&#1101;&#1082;-&#1086;&#1092;&#1080;&#1089;&#1085;&#1099;&#1077; &#1089;&#1080;&#1089;&#1090;&#1077;&#1084;&#1099;"><path d="M1167.384,572.2073 L1349.384,572.2073 A3.75,3.75 0 0 1 1351.884,574.7073 L1358.884,595.222 L1479.384,595.222 A2.5,2.5 0 0 1 1481.884,597.722 L1481.884,1000.6773 A2.5,2.5 0 0 1 1479.384,1003.1773 L1167.384,1003.1773 A2.5,2.5 0 0 1 1164.884,1000.6773 L1164.884,574.7073 A2.5,2.5 0 0 1 1167.384,572.2073 " fill="#F0E6FF" style="stroke:#000000;stroke-width:1.0;"/><line style="stroke:#000000;stroke-width:1.0;" x1="1164.884" x2="1358.884" y1="595.222" y2="595.222"/><text fill="#000000" font-family="Verdana" font-size="14" font-weight="bold" lengthAdjust="spacing" textLength="181" x="1168.884" y="588.2825">&#1041;&#1101;&#1082;-&#1086;&#1092;&#1080;&#1089;&#1085;&#1099;&#1077; &#1089;&#1080;&#1089;&#1090;&#1077;&#1084;&#1099;</text></g><!--cluster ?????? ????????--><g id="cluster_&#1056;&#1091;&#1095;&#1085;&#1099;&#1077; &#1087;&#1088;&#1086;&#1094;&#1077;&#1089;&#1089;&#1099;"><path d="M63.384,572.2073 L208.384,572.2073 A3.75,3.75 0 0 1 210.884,574.7073 L217.884,595.222 L218.384,595.222 A2.5,2.5 0 0 1 220.884,597.722 L220.884,996.1773 A2.5,2.5 0 0 1 218.384,998.6773 L63.384,998.6773 A2.5,2.5 0 0 1 60.884,996.1773 L60.884,574.7073 A2.5,2.5 0 0 1 63.384,572.2073 " fill="#FFFACD" style="stroke:#000000;stroke-width:1.0;"/><line style="stroke:#000000;stroke-width:1.0;" x1="60.884" x2="217.884" y1="595.222" y2="595.222"/><text fill="#000000" font-family="Verdana" font-size="14" font-weight="bold" lengthAdjust="spacing" textLength="144" x="64.884" y="588.2825">&#1056;&#1091;&#1095;&#1085;&#1099;&#1077; &#1087;&#1088;&#1086;&#1094;&#1077;&#1089;&#1089;&#1099;</text></g><!--entity BKI--><g id="elem_BKI"><rect fill="#FFE6CC" height="37.0146" rx="2.5" ry="2.5" style="stroke:#000000;stroke-width:1.0;" width="205" x="678.384" y="937.1573"/><text fill="#000000" font-family="Verdana" font-size="14" lengthAdjust="spacing" textLength="185" x="688.384" y="961.2325">&#1041;&#1102;&#1088;&#1086; &#1082;&#1088;&#1077;&#1076;&#1080;&#1090;&#1085;&#1099;&#1093; &#1080;&#1089;&#1090;&#1086;&#1088;&#1080;&#1081;</text></g><!--entity TELCO--><g id="elem_TELCO"><rect fill="#FFE6CC" height="54.0293" rx="2.5" ry="2.5" style="stroke:#000000;stroke-width:1.0;" width="152" x="491.884" y="928.6473"/><text fill="#000000" font-family="Verdana" font-size="14" lengthAdjust="spacing" textLength="132" x="501.884" y="952.7225">&#1058;&#1077;&#1083;&#1077;&#1082;&#1086;&#1084;-&#1086;&#1087;&#1077;&#1088;&#1072;&#1090;&#1086;&#1088;</text><text fill="#000000" font-family="Verdana" font-size="14" lengthAdjust="spacing" textLength="44" x="501.884" y="969.7371">(&#1057;&#1052;&#1057;)</text></g><!--entity PARTNER_CC--><g id="elem_PARTNER_CC"><rect fill="#FFE6CC" height="54.0293" rx="2.5" ry="2.5" style="stroke:#000000;stroke-width:1.0;" width="114" x="342.884" y="928.6473"/><text fill="#000000" font-family="Verdana" font-size="14" lengthAdjust="spacing" textLength="94" x="352.884" y="952.7225">&#1055;&#1072;&#1088;&#1090;&#1085;&#1105;&#1088;&#1089;&#1082;&#1080;&#1081;</text><text fill="#000000" font-family="Verdana" font-size="14" lengthAdjust="spacing" textLength="73" x="352.884" y="969.7371">&#1082;&#1086;&#1083;-&#1094;&#1077;&#1085;&#1090;&#1088;</text></g><!--entity SITE--><g id="elem_SITE"><rect fill="#90EE90" height="54.0293" rx="2.5" ry="2.5" style="stroke:#000000;stroke-width:1.0;" width="109" x="618.384" y="415.2973"/><text fill="#000000" font-family="Verdana" font-size="14" lengthAdjust="spacing" textLength="34" x="628.384" y="439.3725">&#1057;&#1072;&#1081;&#1090;</text><text fill="#000000" font-family="Verdana" font-size="14" lengthAdjust="spacing" textLength="89" x="628.384" y="456.3871">PHP/React.js</text></g><!--entity IB--><g id="elem_IB"><rect fill="#90EE90" height="71.0439" rx="2.5" ry="2.5" style="stroke:#000000;stroke-width:1.0;" width="128" x="996.884" y="406.7873"/><text fill="#000000" font-family="Verdana" font-size="14" lengthAdjust="spacing" textLength="108" x="1006.884" y="430.8625">&#1048;&#1085;&#1090;&#1077;&#1088;&#1085;&#1077;&#1090;-&#1073;&#1072;&#1085;&#1082;</text><text fill="#000000" font-family="Verdana" font-size="14" lengthAdjust="spacing" textLength="98" x="1006.884" y="447.8771">ASP.NET MVC</text><text fill="#000000" font-family="Verdana" font-size="14" lengthAdjust="spacing" textLength="56" x="1006.884" y="464.8918">MS SQL</text></g><!--entity CC--><g id="elem_CC"><rect fill="#87CEEB" height="54.0293" rx="2.5" ry="2.5" style="stroke:#000000;stroke-width:1.0;" width="199" x="762.384" y="415.2973"/><text fill="#000000" font-family="Verdana" font-size="14" lengthAdjust="spacing" textLength="145" x="772.384" y="439.3725">&#1057;&#1080;&#1089;&#1090;&#1077;&#1084;&#1072; &#1082;&#1086;&#1083;-&#1094;&#1077;&#1085;&#1090;&#1088;&#1072;</text><text fill="#000000" font-family="Verdana" font-size="14" lengthAdjust="spacing" textLength="179" x="772.384" y="456.3871">React.js/Java/PostgreSQL</text></g><!--entity IB_DB--><g id="elem_IB_DB"><path d="M913.884,622.2173 C913.884,612.2173 951.884,612.2173 951.884,612.2173 C951.884,612.2173 989.884,612.2173 989.884,622.2173 L989.884,648.232 C989.884,658.232 951.884,658.232 951.884,658.232 C951.884,658.232 913.884,658.232 913.884,648.232 L913.884,622.2173 " fill="#D3D3D3" style="stroke:#000000;stroke-width:1.0;"/><path d="M913.884,622.2173 C913.884,632.2173 951.884,632.2173 951.884,632.2173 C951.884,632.2173 989.884,632.2173 989.884,622.2173 " fill="none" style="stroke:#000000;stroke-width:1.0;"/><text fill="#000000" font-family="Verdana" font-size="14" lengthAdjust="spacing" textLength="56" x="923.884" y="650.2925">MS SQL</text></g><!--entity CC_DB--><g id="elem_CC_DB"><path d="M777.384,622.2173 C777.384,612.2173 827.884,612.2173 827.884,612.2173 C827.884,612.2173 878.384,612.2173 878.384,622.2173 L878.384,648.232 C878.384,658.232 827.884,658.232 827.884,658.232 C827.884,658.232 777.384,658.232 777.384,648.232 L777.384,622.2173 " fill="#D3D3D3" style="stroke:#000000;stroke-width:1.0;"/><path d="M777.384,622.2173 C777.384,632.2173 827.884,632.2173 827.884,632.2173 C827.884,632.2173 878.384,632.2173 878.384,622.2173 " fill="none" style="stroke:#000000;stroke-width:1.0;"/><text fill="#000000" font-family="Verdana" font-size="14" lengthAdjust="spacing" textLength="81" x="787.384" y="650.2925">PostgreSQL</text></g><!--entity ABS--><g id="elem_ABS"><rect fill="#FF6B6B" height="54.0293" rx="2.5" ry="2.5" style="stroke:#000000;stroke-width:1.0;" width="115" x="381.384" y="608.2073"/><text fill="#000000" font-family="Verdana" font-size="14" lengthAdjust="spacing" textLength="30" x="391.384" y="632.2825">&#1040;&#1041;&#1057;</text><text fill="#000000" font-family="Verdana" font-size="14" lengthAdjust="spacing" textLength="95" x="391.384" y="649.2971">Delphi/Oracle</text></g><!--entity ABS_DB--><g id="elem_ABS_DB"><path d="M471.884,774.6173 C471.884,764.6173 516.884,764.6173 516.884,764.6173 C516.884,764.6173 561.884,764.6173 561.884,774.6173 L561.884,817.6466 C561.884,827.6466 516.884,827.6466 516.884,827.6466 C516.884,827.6466 471.884,827.6466 471.884,817.6466 L471.884,774.6173 " fill="#D3D3D3" style="stroke:#000000;stroke-width:1.0;"/><path d="M471.884,774.6173 C471.884,784.6173 516.884,784.6173 516.884,784.6173 C516.884,784.6173 561.884,784.6173 561.884,774.6173 " fill="none" style="stroke:#000000;stroke-width:1.0;"/><text fill="#000000" font-family="Verdana" font-size="14" lengthAdjust="spacing" textLength="70" x="481.884" y="802.6925">Oracle DB</text><text fill="#000000" font-family="Verdana" font-size="14" lengthAdjust="spacing" textLength="42" x="481.884" y="819.7071">(&#1040;&#1041;&#1057;)</text></g><!--entity SMS--><g id="elem_SMS"><rect fill="#FFA500" height="37.0146" rx="2.5" ry="2.5" style="stroke:#000000;stroke-width:1.0;" width="98" x="338.884" y="777.6273"/><text fill="#000000" font-family="Verdana" font-size="14" lengthAdjust="spacing" textLength="78" x="348.884" y="801.7025">&#1057;&#1052;&#1057;-&#1096;&#1083;&#1102;&#1079;</text></g><!--entity CREDIT_PIPELINE--><g id="elem_CREDIT_PIPELINE"><rect fill="#DDA0DD" height="54.0293" rx="2.5" ry="2.5" style="stroke:#000000;stroke-width:1.0;" width="173" x="1182.384" y="608.2073"/><text fill="#000000" font-family="Verdana" font-size="14" lengthAdjust="spacing" textLength="153" x="1192.384" y="632.2825">&#1050;&#1088;&#1077;&#1076;&#1080;&#1090;&#1085;&#1099;&#1081; &#1082;&#1086;&#1085;&#1074;&#1077;&#1081;&#1077;&#1088;</text><text fill="#000000" font-family="Verdana" font-size="14" lengthAdjust="spacing" textLength="138" x="1192.384" y="649.2971">Camunda BPM/Java</text></g><!--entity SCORING--><g id="elem_SCORING"><rect fill="#DDA0DD" height="54.0293" rx="2.5" ry="2.5" style="stroke:#000000;stroke-width:1.0;" width="149" x="1180.384" y="769.1173"/><text fill="#000000" font-family="Verdana" font-size="14" lengthAdjust="spacing" textLength="129" x="1190.384" y="793.1925">&#1057;&#1080;&#1089;&#1090;&#1077;&#1084;&#1072; &#1089;&#1082;&#1086;&#1088;&#1080;&#1085;&#1075;&#1072;</text><text fill="#000000" font-family="Verdana" font-size="14" lengthAdjust="spacing" textLength="89" x="1190.384" y="810.2071">Python/Flask</text></g><!--entity PIPELINE_DB--><g id="elem_PIPELINE_DB"><path d="M1364.384,774.6173 C1364.384,764.6173 1414.884,764.6173 1414.884,764.6173 C1414.884,764.6173 1465.384,764.6173 1465.384,774.6173 L1465.384,817.6466 C1465.384,827.6466 1414.884,827.6466 1414.884,827.6466 C1414.884,827.6466 1364.384,827.6466 1364.384,817.6466 L1364.384,774.6173 " fill="#D3D3D3" style="stroke:#000000;stroke-width:1.0;"/><path d="M1364.384,774.6173 C1364.384,784.6173 1414.884,784.6173 1414.884,784.6173 C1414.884,784.6173 1465.384,784.6173 1465.384,774.6173 " fill="none" style="stroke:#000000;stroke-width:1.0;"/><text fill="#000000" font-family="Verdana" font-size="14" lengthAdjust="spacing" textLength="70" x="1374.384" y="802.6925">Oracle DB</text><text fill="#000000" font-family="Verdana" font-size="14" lengthAdjust="spacing" textLength="81" x="1374.384" y="819.7071">(&#1050;&#1086;&#1085;&#1074;&#1077;&#1081;&#1077;&#1088;)</text></g><!--entity SCORING_DB--><g id="elem_SCORING_DB"><path d="M1204.384,934.1473 C1204.384,924.1473 1254.884,924.1473 1254.884,924.1473 C1254.884,924.1473 1305.384,924.1473 1305.384,934.1473 L1305.384,977.1766 C1305.384,987.1766 1254.884,987.1766 1254.884,987.1766 C1254.884,987.1766 1204.384,987.1766 1204.384,977.1766 L1204.384,934.1473 " fill="#D3D3D3" style="stroke:#000000;stroke-width:1.0;"/><path d="M1204.384,934.1473 C1204.384,944.1473 1254.884,944.1473 1254.884,944.1473 C1254.884,944.1473 1305.384,944.1473 1305.384,934.1473 " fill="none" style="stroke:#000000;stroke-width:1.0;"/><text fill="#000000" font-family="Verdana" font-size="14" lengthAdjust="spacing" textLength="81" x="1214.384" y="962.2225">PostgreSQL</text><text fill="#000000" font-family="Verdana" font-size="14" lengthAdjust="spacing" textLength="72" x="1214.384" y="979.2371">(&#1057;&#1082;&#1086;&#1088;&#1080;&#1085;&#1075;)</text></g><!--entity EXCEL--><g id="elem_EXCEL"><rect fill="#FFD700" height="54.0293" rx="2.5" ry="2.5" style="stroke:#000000;stroke-width:1.0;" width="119" x="83.384" y="608.2073"/><text fill="#000000" font-family="Verdana" font-size="14" lengthAdjust="spacing" textLength="99" x="93.384" y="632.2825">Excel &#1088;&#1072;&#1089;&#1095;&#1077;&#1090;&#1099;</text><text fill="#000000" font-family="Verdana" font-size="14" lengthAdjust="spacing" textLength="46" x="93.384" y="649.2971">&#1089;&#1090;&#1072;&#1074;&#1086;&#1082;</text></g><!--entity EMAIL--><g id="elem_EMAIL"><rect fill="#FFD700" height="54.0293" rx="2.5" ry="2.5" style="stroke:#000000;stroke-width:1.0;" width="125" x="78.384" y="928.6473"/><text fill="#000000" font-family="Verdana" font-size="14" lengthAdjust="spacing" textLength="39" x="88.384" y="952.7225">Email</text><text fill="#000000" font-family="Verdana" font-size="14" lengthAdjust="spacing" textLength="105" x="88.384" y="969.7371">&#1082;&#1086;&#1084;&#1084;&#1091;&#1085;&#1080;&#1082;&#1072;&#1094;&#1080;&#1080;</text></g><!--entity CLIENT--><g id="elem_CLIENT"><ellipse cx="749.884" cy="66.7373" fill="#FFFFFF" rx="8" ry="8" style="stroke:#000000;stroke-width:1.0;"/><path d="M749.884,74.7373 L749.884,101.7373 M736.884,82.7373 L762.884,82.7373 M749.884,101.7373 L736.884,116.7373 M749.884,101.7373 L762.884,116.7373 " fill="none" style="stroke:#000000;stroke-width:1.0;"/><text fill="#000000" font-family="Verdana" font-size="14" lengthAdjust="spacing" textLength="52" x="723.884" y="132.8125">&#1050;&#1083;&#1080;&#1077;&#1085;&#1090;</text></g><!--entity BRANCH_EMP--><g id="elem_BRANCH_EMP"><ellipse cx="507.884" cy="221.7573" fill="#FFFFFF" rx="8" ry="8" style="stroke:#000000;stroke-width:1.0;"/><path d="M507.884,229.7573 L507.884,256.7573 M494.884,237.7573 L520.884,237.7573 M507.884,256.7573 L494.884,271.7573 M507.884,256.7573 L520.884,271.7573 " fill="none" style="stroke:#000000;stroke-width:1.0;"/><text fill="#000000" font-family="Verdana" font-size="14" lengthAdjust="spacing" textLength="77" x="469.384" y="287.8325">&#1057;&#1086;&#1090;&#1088;&#1091;&#1076;&#1085;&#1080;&#1082;</text><text fill="#000000" font-family="Verdana" font-size="14" lengthAdjust="spacing" textLength="75" x="469.384" y="304.8471">&#1086;&#1090;&#1076;&#1077;&#1083;&#1077;&#1085;&#1080;&#1103;</text></g><!--entity BACK_EMP--><g id="elem_BACK_EMP"><ellipse cx="321.884" cy="403.7973" fill="#FFFFFF" rx="8" ry="8" style="stroke:#000000;stroke-width:1.0;"/><path d="M321.884,411.7973 L321.884,438.7973 M308.884,419.7973 L334.884,419.7973 M321.884,438.7973 L308.884,453.7973 M321.884,438.7973 L334.884,453.7973 " fill="none" style="stroke:#000000;stroke-width:1.0;"/><text fill="#000000" font-family="Verdana" font-size="14" lengthAdjust="spacing" textLength="77" x="283.384" y="469.8725">&#1057;&#1086;&#1090;&#1088;&#1091;&#1076;&#1085;&#1080;&#1082;</text><text fill="#000000" font-family="Verdana" font-size="14" lengthAdjust="spacing" textLength="75" x="283.384" y="486.8871">&#1073;&#1101;&#1082;-&#1086;&#1092;&#1080;&#1089;&#1072;</text></g><!--entity CREDIT_MGR--><g id="elem_CREDIT_MGR"><ellipse cx="1268.884" cy="403.7973" fill="#FFFFFF" rx="8" ry="8" style="stroke:#000000;stroke-width:1.0;"/><path d="M1268.884,411.7973 L1268.884,438.7973 M1255.884,419.7973 L1281.884,419.7973 M1268.884,438.7973 L1255.884,453.7973 M1268.884,438.7973 L1281.884,453.7973 " fill="none" style="stroke:#000000;stroke-width:1.0;"/><text fill="#000000" font-family="Verdana" font-size="14" lengthAdjust="spacing" textLength="74" x="1218.884" y="469.8725">&#1052;&#1077;&#1085;&#1077;&#1076;&#1078;&#1077;&#1088;</text><text fill="#000000" font-family="Verdana" font-size="14" lengthAdjust="spacing" textLength="100" x="1218.884" y="486.8871">&#1082;&#1088;&#1077;&#1076;&#1080;&#1090;&#1086;&#1074;&#1072;&#1085;&#1080;&#1103;</text></g><!--entity CC_OPER--><g id="elem_CC_OPER"><ellipse cx="843.884" cy="221.7573" fill="#FFFFFF" rx="8" ry="8" style="stroke:#000000;stroke-width:1.0;"/><path d="M843.884,229.7573 L843.884,256.7573 M830.884,237.7573 L856.884,237.7573 M843.884,256.7573 L830.884,271.7573 M843.884,256.7573 L856.884,271.7573 " fill="none" style="stroke:#000000;stroke-width:1.0;"/><text fill="#000000" font-family="Verdana" font-size="14" lengthAdjust="spacing" textLength="69" x="803.384" y="287.8325">&#1054;&#1087;&#1077;&#1088;&#1072;&#1090;&#1086;&#1088;</text><text fill="#000000" font-family="Verdana" font-size="14" lengthAdjust="spacing" textLength="81" x="803.384" y="304.8471">&#1082;&#1086;&#1083;-&#1094;&#1077;&#1085;&#1090;&#1088;&#1072;</text></g><g id="elem_GMN56"><path d="M1498.384,582.8273 L1498.384,687.6232 L1761.384,687.6232 L1761.384,592.8273 L1751.384,582.8273 L1498.384,582.8273 " fill="#FFFFFF" style="stroke:#000000;stroke-width:1.0;"/><path d="M1751.384,582.8273 L1751.384,592.8273 L1761.384,592.8273 L1751.384,582.8273 " fill="#FFFFFF" style="stroke:#000000;stroke-width:1.0;"/><text fill="#000000" font-family="Verdana" font-size="13" font-weight="bold" lengthAdjust="spacing" textLength="84" x="1504.384" y="600.8971">&#1055;&#1088;&#1086;&#1073;&#1083;&#1077;&#1084;&#1099;:</text><text fill="#000000" font-family="Verdana" font-size="13" lengthAdjust="spacing" textLength="242" x="1504.384" y="616.6964">&#8226; Batch-&#1080;&#1085;&#1090;&#1077;&#1075;&#1088;&#1072;&#1094;&#1080;&#1080; (&#1079;&#1072;&#1076;&#1077;&#1088;&#1078;&#1082;&#1080; 24&#1095;)</text><text fill="#000000" font-family="Verdana" font-size="13" lengthAdjust="spacing" textLength="150" x="1504.384" y="632.4958">&#8226; &#1055;&#1088;&#1103;&#1084;&#1086;&#1081; &#1076;&#1086;&#1089;&#1090;&#1091;&#1087; &#1082; &#1041;&#1044;</text><text fill="#000000" font-family="Verdana" font-size="13" lengthAdjust="spacing" textLength="131" x="1504.384" y="648.2951">&#8226; &#1056;&#1091;&#1095;&#1085;&#1099;&#1077; &#1087;&#1088;&#1086;&#1094;&#1077;&#1089;&#1089;&#1099;</text><text fill="#000000" font-family="Verdana" font-size="13" lengthAdjust="spacing" textLength="117" x="1504.384" y="664.0944">&#8226; &#1054;&#1090;&#1089;&#1091;&#1090;&#1089;&#1090;&#1074;&#1080;&#1077; ESB</text><text fill="#000000" font-family="Verdana" font-size="13" lengthAdjust="spacing" textLength="153" x="1504.384" y="679.8937">&#8226; Email-&#1082;&#1086;&#1084;&#1084;&#1091;&#1085;&#1080;&#1082;&#1072;&#1094;&#1080;&#1080;</text></g><!--link IB to IB_DB--><g id="link_IB_IB_DB"><path d="M1004.224,478.0273 C989.834,489.5573 975.904,503.6573 966.884,519.8273 C950.774,548.6873 948.9786,581.8715 949.8886,606.0815 " fill="none" id="IB-to-IB_DB" style="stroke:#000000;stroke-width:1.0;"/><polygon fill="#000000" points="950.114,612.0773,953.7731,602.9334,949.9262,607.0808,945.7788,603.2339,950.114,612.0773" style="stroke:#000000;stroke-width:1.0;"/><text fill="#000000" font-family="Verdana" font-size="13" lengthAdjust="spacing" textLength="65" x="967.884" y="541.8971">&#1061;&#1088;&#1072;&#1085;&#1077;&#1085;&#1080;&#1077;</text></g><!--link IB to ABS_DB--><g id="link_IB_ABS_DB"><path d="M1064.134,477.8973 C1067.054,530.7973 1064.144,631.5573 1007.884,687.6173 C944.914,750.3673 677.1288,780.7882 567.9988,790.8182 " fill="none" id="IB-to-ABS_DB" style="stroke:#000000;stroke-width:1.0;"/><polygon fill="#000000" points="562.024,791.3673,571.3523,794.5268,567.003,790.9097,570.6201,786.5604,562.024,791.3673" style="stroke:#000000;stroke-width:1.0;"/><polygon fill="none" points="1066.534,631.117,1070.534,635.117,1066.534,639.117,1062.534,635.117" style="stroke:#000000;stroke-width:1.0;"/><text fill="#000000" font-family="Verdana" font-size="13" lengthAdjust="spacing" textLength="38" x="1073.534" y="640.7871">green</text><text fill="#000000" font-family="Verdana" font-size="13" lengthAdjust="spacing" textLength="51" x="980.2707" y="490.387">&#1055;&#1088;&#1103;&#1084;&#1086;&#1077;</text><text fill="#000000" font-family="Verdana" font-size="13" lengthAdjust="spacing" textLength="91" x="960.2707" y="506.1863">&#1087;&#1086;&#1076;&#1082;&#1083;&#1102;&#1095;&#1077;&#1085;&#1080;&#1077;</text><text fill="#000000" font-family="Verdana" font-size="13" lengthAdjust="spacing" textLength="74" x="968.7707" y="521.9856">(real-time)</text></g><!--link CC to CC_DB--><g id="link_CC_CC_DB"><path d="M857.224,469.4573 C850.494,507.2373 839.2259,570.5502 832.9059,606.0402 " fill="none" id="CC-to-CC_DB" style="stroke:#000000;stroke-width:1.0;"/><polygon fill="#000000" points="831.854,611.9473,837.3699,603.788,832.7306,607.0247,829.4938,602.3854,831.854,611.9473" style="stroke:#000000;stroke-width:1.0;"/><text fill="#000000" font-family="Verdana" font-size="13" lengthAdjust="spacing" textLength="65" x="848.934" y="541.8971">&#1061;&#1088;&#1072;&#1085;&#1077;&#1085;&#1080;&#1077;</text></g><!--link CC to ABS--><g id="link_CC_ABS"><path d="M803.514,469.6573 C722.604,506.1673 582.7129,569.3092 502.1229,605.6792 " fill="none" id="CC-to-ABS" style="stroke:#000000;stroke-width:1.0;"/><polygon fill="#000000" points="496.654,608.1473,506.5027,608.0911,501.2114,606.0906,503.2119,600.7993,496.654,608.1473" style="stroke:#000000;stroke-width:1.0;"/><polygon fill="none" points="694.274,532.227,698.274,536.227,694.274,540.227,690.274,536.227" style="stroke:#000000;stroke-width:1.0;"/><text fill="#000000" font-family="Verdana" font-size="13" lengthAdjust="spacing" textLength="38" x="701.274" y="541.8971">green</text><text fill="#000000" font-family="Verdana" font-size="13" lengthAdjust="spacing" textLength="22" x="706.7719" y="460.4203">API</text><text fill="#000000" font-family="Verdana" font-size="13" lengthAdjust="spacing" textLength="74" x="680.7719" y="476.2196">(real-time)</text></g><!--link ABS to ABS_DB--><g id="link_ABS_ABS_DB"><path d="M451.764,662.4573 C465.484,690.4073 484.5293,729.2216 499.0693,758.8316 " fill="none" id="ABS-to-ABS_DB" style="stroke:#000000;stroke-width:1.0;"/><polygon fill="#000000" points="501.714,764.2173,501.3375,754.3756,499.5101,759.7292,494.1566,757.9018,501.714,764.2173" style="stroke:#000000;stroke-width:1.0;"/><text fill="#000000" font-family="Verdana" font-size="13" lengthAdjust="spacing" textLength="65" x="488.164" y="731.6871">&#1061;&#1088;&#1072;&#1085;&#1077;&#1085;&#1080;&#1077;</text></g><!--link ABS to SMS--><g id="link_ABS_SMS"><path d="M419.864,662.7073 C409.954,677.9873 398.724,698.0173 392.884,717.6173 C386.994,737.3973 386.1988,755.2196 386.6388,771.1896 " fill="none" id="ABS-to-SMS" style="stroke:#000000;stroke-width:1.0;"/><polygon fill="#000000" points="386.804,777.1873,390.5546,768.0806,386.6663,772.1892,382.5576,768.3009,386.804,777.1873" style="stroke:#000000;stroke-width:1.0;"/><polygon fill="none" points="398.884,722.017,402.884,726.017,398.884,730.017,394.884,726.017" style="stroke:#000000;stroke-width:1.0;"/><text fill="#000000" font-family="Verdana" font-size="13" lengthAdjust="spacing" textLength="38" x="405.884" y="731.6871">green</text><text fill="#000000" font-family="Verdana" font-size="13" lengthAdjust="spacing" textLength="57" x="316.532" y="680.6525">&#1057;&#1086;&#1073;&#1099;&#1090;&#1080;&#1103;</text></g><!--link SMS to TELCO--><g id="link_SMS_TELCO"><path d="M408.184,814.8973 C439.814,842.5773 496.5189,892.2058 533.2889,924.3858 " fill="none" id="SMS-to-TELCO" style="stroke:#000000;stroke-width:1.0;"/><polygon fill="#000000" points="537.804,928.3373,533.6657,919.4001,534.0414,925.0444,528.3971,925.4202,537.804,928.3373" style="stroke:#000000;stroke-width:1.0;"/><polygon fill="none" points="483.884,864.047,487.884,868.047,483.884,872.047,479.884,868.047" style="stroke:#000000;stroke-width:1.0;"/><text fill="#000000" font-family="Verdana" font-size="13" lengthAdjust="spacing" textLength="38" x="490.884" y="873.7171">green</text><text fill="#000000" font-family="Verdana" font-size="13" lengthAdjust="spacing" textLength="22" x="281.694" y="813.7085">API</text><text fill="#000000" font-family="Verdana" font-size="13" lengthAdjust="spacing" textLength="74" x="255.694" y="829.5078">(real-time)</text></g><!--link CREDIT_PIPELINE to PIPELINE_DB--><g id="link_CREDIT_PIPELINE_PIPELINE_DB"><path d="M1292.994,662.4573 C1318.664,690.4073 1355.2142,730.1894 1382.4242,759.7994 " fill="none" id="CREDIT_PIPELINE-to-PIPELINE_DB" style="stroke:#000000;stroke-width:1.0;"/><polygon fill="#000000" points="1386.484,764.2173,1383.3395,754.8839,1383.1008,760.5357,1377.449,760.297,1386.484,764.2173" style="stroke:#000000;stroke-width:1.0;"/><text fill="#000000" font-family="Verdana" font-size="13" lengthAdjust="spacing" textLength="65" x="1360.254" y="731.6871">&#1061;&#1088;&#1072;&#1085;&#1077;&#1085;&#1080;&#1077;</text></g><!--link SCORING to SCORING_DB--><g id="link_SCORING_SCORING_DB"><path d="M1254.884,823.4973 C1254.884,851.1773 1254.884,888.6573 1254.884,917.8873 " fill="none" id="SCORING-to-SCORING_DB" style="stroke:#000000;stroke-width:1.0;"/><polygon fill="#000000" points="1254.884,923.8873,1258.884,914.8873,1254.884,918.8873,1250.884,914.8873,1254.884,923.8873" style="stroke:#000000;stroke-width:1.0;"/><text fill="#000000" font-family="Verdana" font-size="13" lengthAdjust="spacing" textLength="65" x="1255.884" y="873.7171">&#1061;&#1088;&#1072;&#1085;&#1077;&#1085;&#1080;&#1077;</text></g><!--link ABS_DB to CREDIT_PIPELINE--><g id="link_ABS_DB_CREDIT_PIPELINE"><path d="M562.234,794.3873 C689.524,791.7373 1047.814,780.3073 1154.884,734.6173 C1192.154,718.7173 1222.074,690.4605 1243.044,667.1205 " fill="none" id="ABS_DB-to-CREDIT_PIPELINE" style="stroke:#000000;stroke-width:1.0;stroke-dasharray:7.0,7.0;"/><polygon fill="#000000" points="1247.054,662.6573,1238.0636,666.6788,1243.7123,666.3766,1244.0145,672.0254,1247.054,662.6573" style="stroke:#000000;stroke-width:1.0;"/><polygon fill="none" points="1189.554,722.017,1193.554,726.017,1189.554,730.017,1185.554,726.017" style="stroke:#000000;stroke-width:1.0;"/><text fill="#000000" font-family="Verdana" font-size="13" lengthAdjust="spacing" textLength="22" x="1196.554" y="731.6871">red</text><text fill="#000000" font-family="Verdana" font-size="13" lengthAdjust="spacing" textLength="37" x="507.6465" y="738.3301">Batch</text><text fill="#000000" font-family="Verdana" font-size="13" lengthAdjust="spacing" textLength="85" x="483.6465" y="754.1294">(1 &#1088;&#1072;&#1079;/&#1076;&#1077;&#1085;&#1100;)</text></g><!--link CREDIT_PIPELINE to ABS_DB--><g id="link_CREDIT_PIPELINE_ABS_DB"><path d="M1217.204,662.6373 C1186.304,678.4873 1146.294,699.0973 1110.884,717.6173 C1096.614,725.0873 1094.284,729.8973 1078.884,734.6173 C893.364,791.5573 665.1139,796.6763 568.1139,796.0463 " fill="none" id="CREDIT_PIPELINE-to-ABS_DB" style="stroke:#000000;stroke-width:1.0;stroke-dasharray:7.0,7.0;"/><polygon fill="#000000" points="562.114,796.0073,571.0878,800.0657,567.1139,796.0398,571.1398,792.0658,562.114,796.0073" style="stroke:#000000;stroke-width:1.0;"/><polygon fill="none" points="1116.884,722.017,1120.884,726.017,1116.884,730.017,1112.884,726.017" style="stroke:#000000;stroke-width:1.0;"/><text fill="#000000" font-family="Verdana" font-size="13" lengthAdjust="spacing" textLength="22" x="1123.884" y="731.6871">red</text><text fill="#000000" font-family="Verdana" font-size="13" lengthAdjust="spacing" textLength="37" x="1112.6458" y="650.3564">Batch</text><text fill="#000000" font-family="Verdana" font-size="13" lengthAdjust="spacing" textLength="85" x="1088.6458" y="666.1557">(1 &#1088;&#1072;&#1079;/&#1076;&#1077;&#1085;&#1100;)</text></g><!--link ABS_DB to SCORING_DB--><g id="link_ABS_DB_SCORING_DB"><path d="M562.154,797.0973 C657.024,798.1473 882.824,806.5473 1062.884,859.6473 C1113.544,874.5873 1161.8715,899.1983 1199.5015,920.8183 " fill="none" id="ABS_DB-to-SCORING_DB" style="stroke:#000000;stroke-width:1.0;stroke-dasharray:7.0,7.0;"/><polygon fill="#000000" points="1204.704,923.8073,1198.893,915.8554,1200.3686,921.3164,1194.9076,922.7921,1204.704,923.8073" style="stroke:#000000;stroke-width:1.0;"/><polygon fill="none" points="1112.984,864.047,1116.984,868.047,1112.984,872.047,1108.984,868.047" style="stroke:#000000;stroke-width:1.0;"/><text fill="#000000" font-family="Verdana" font-size="13" lengthAdjust="spacing" textLength="22" x="1119.984" y="873.7171">red</text><text fill="#000000" font-family="Verdana" font-size="13" lengthAdjust="spacing" textLength="37" x="509.0485" y="738.5964">Batch</text><text fill="#000000" font-family="Verdana" font-size="13" lengthAdjust="spacing" textLength="85" x="485.0485" y="754.3957">(1 &#1088;&#1072;&#1079;/&#1076;&#1077;&#1085;&#1100;)</text></g><!--link PIPELINE_DB to SCORING_DB--><g id="link_PIPELINE_DB_SCORING_DB"><path d="M1383.654,827.8773 C1355.554,855.5473 1318.7392,891.7874 1290.5792,919.5174 " fill="none" id="PIPELINE_DB-to-SCORING_DB" style="stroke:#000000;stroke-width:1.0;stroke-dasharray:7.0,7.0;"/><polygon fill="#000000" points="1286.304,923.7273,1295.5233,920.2626,1289.8666,920.2191,1289.9102,914.5624,1286.304,923.7273" style="stroke:#000000;stroke-width:1.0;"/><polygon fill="none" points="1355.214,864.047,1359.214,868.047,1355.214,872.047,1351.214,868.047" style="stroke:#000000;stroke-width:1.0;"/><text fill="#000000" font-family="Verdana" font-size="13" lengthAdjust="spacing" textLength="22" x="1362.214" y="873.7171">red</text><text fill="#000000" font-family="Verdana" font-size="13" lengthAdjust="spacing" textLength="37" x="1312.7145" y="848.6978">Batch</text><text fill="#000000" font-family="Verdana" font-size="13" lengthAdjust="spacing" textLength="85" x="1288.7145" y="864.4972">(1 &#1088;&#1072;&#1079;/&#1076;&#1077;&#1085;&#1100;)</text></g><!--link CREDIT_PIPELINE to SCORING--><g id="link_CREDIT_PIPELINE_SCORING"><path d="M1266.574,662.4573 C1263.974,691.9073 1260.3195,733.4204 1257.7295,762.8804 " fill="none" id="CREDIT_PIPELINE-to-SCORING" style="stroke:#000000;stroke-width:1.0;"/><polygon fill="#000000" points="1257.204,768.8573,1261.9768,760.2422,1257.6419,763.8765,1254.0076,759.5416,1257.204,768.8573" style="stroke:#000000;stroke-width:1.0;"/><polygon fill="none" points="1267.464,722.017,1271.464,726.017,1267.464,730.017,1263.464,726.017" style="stroke:#000000;stroke-width:1.0;"/><text fill="#000000" font-family="Verdana" font-size="13" lengthAdjust="spacing" textLength="38" x="1274.464" y="731.6871">green</text><text fill="#000000" font-family="Verdana" font-size="13" lengthAdjust="spacing" textLength="61" x="1106.6955" y="672.8086">REST API</text><text fill="#000000" font-family="Verdana" font-size="13" lengthAdjust="spacing" textLength="74" x="1100.1955" y="688.6079">(real-time)</text></g><!--link SCORING to BKI--><g id="link_SCORING_BKI"><path d="M1179.974,812.9073 C1130.324,824.1273 1064.054,840.5473 1006.884,859.6473 C939.064,882.3073 868.3661,913.6208 824.0361,934.2008 " fill="none" id="SCORING-to-BKI" style="stroke:#000000;stroke-width:1.0;"/><polygon fill="#000000" points="818.594,936.7273,828.4415,936.5657,823.1291,934.6219,825.0729,929.3095,818.594,936.7273" style="stroke:#000000;stroke-width:1.0;"/><polygon fill="none" points="1012.884,864.047,1016.884,868.047,1012.884,872.047,1008.884,868.047" style="stroke:#000000;stroke-width:1.0;"/><text fill="#000000" font-family="Verdana" font-size="13" lengthAdjust="spacing" textLength="38" x="1019.884" y="873.7171">green</text><text fill="#000000" font-family="Verdana" font-size="13" lengthAdjust="spacing" textLength="61" x="1104.955" y="795.0829">REST API</text><text fill="#000000" font-family="Verdana" font-size="13" lengthAdjust="spacing" textLength="74" x="1098.455" y="810.8822">(real-time)</text></g><!--link EMAIL to ABS--><g id="link_EMAIL_ABS"><path d="M157.354,928.2273 C188.904,877.6473 255.364,771.5473 261.884,764.6173 C300.914,723.1473 349.8674,689.3473 387.9474,665.8573 " fill="none" id="EMAIL-to-ABS" style="stroke:#000000;stroke-width:1.0;stroke-dasharray:7.0,7.0;"/><polygon fill="#000000" points="393.054,662.7073,383.2941,664.028,388.7985,665.3323,387.4942,670.8368,393.054,662.7073" style="stroke:#000000;stroke-width:1.0;"/><polygon fill="none" points="267.884,792.037,271.884,796.037,267.884,800.037,263.884,796.037" style="stroke:#000000;stroke-width:1.0;"/><text fill="#000000" font-family="Verdana" font-size="13" lengthAdjust="spacing" textLength="46" x="274.884" y="801.7071">orange</text><text fill="#000000" font-family="Verdana" font-size="13" lengthAdjust="spacing" textLength="48" x="94.8217" y="902.1698">&#1056;&#1091;&#1095;&#1085;&#1072;&#1103;</text><text fill="#000000" font-family="Verdana" font-size="13" lengthAdjust="spacing" textLength="70" x="83.8217" y="917.9691">&#1086;&#1073;&#1088;&#1072;&#1073;&#1086;&#1090;&#1082;&#1072;</text></g><!--link EXCEL to EMAIL--><g id="link_EXCEL_EMAIL"><path d="M142.364,662.2873 C141.864,688.2273 141.164,729.1673 140.884,764.6173 C140.434,823.0173 140.5795,885.5074 140.7295,922.2174 " fill="none" id="EXCEL-to-EMAIL" style="stroke:#000000;stroke-width:1.0;stroke-dasharray:7.0,7.0;"/><polygon fill="#000000" points="140.754,928.2173,144.7172,919.201,140.7336,923.2173,136.7173,919.2337,140.754,928.2173" style="stroke:#000000;stroke-width:1.0;"/><polygon fill="none" points="146.884,792.037,150.884,796.037,146.884,800.037,142.884,796.037" style="stroke:#000000;stroke-width:1.0;"/><text fill="#000000" font-family="Verdana" font-size="13" lengthAdjust="spacing" textLength="46" x="153.884" y="801.7071">orange</text><text fill="#000000" font-family="Verdana" font-size="13" lengthAdjust="spacing" textLength="66" x="11" y="667.4932">&#1055;&#1077;&#1088;&#1077;&#1076;&#1072;&#1095;&#1072;</text><text fill="#000000" font-family="Verdana" font-size="13" lengthAdjust="spacing" textLength="61" x="13.5" y="683.2925">&#1088;&#1072;&#1089;&#1095;&#1077;&#1090;&#1086;&#1074;</text></g><!--link PARTNER_CC to EMAIL--><g id="link_PARTNER_CC_EMAIL"><path d="M342.634,955.6673 C301.454,955.6673 251.944,955.6673 209.584,955.6673 " fill="none" id="PARTNER_CC-to-EMAIL" style="stroke:#000000;stroke-width:1.0;stroke-dasharray:7.0,7.0;"/><polygon fill="#000000" points="203.584,955.6673,212.584,959.6673,208.584,955.6673,212.584,951.6673,203.584,955.6673" style="stroke:#000000;stroke-width:1.0;"/><polygon fill="none" points="249.134,940.067,253.134,944.067,249.134,948.067,245.134,944.067" style="stroke:#000000;stroke-width:1.0;"/><text fill="#000000" font-family="Verdana" font-size="13" lengthAdjust="spacing" textLength="46" x="256.134" y="949.7371">orange</text><text fill="#000000" font-family="Verdana" font-size="13" lengthAdjust="spacing" textLength="57" x="277.9969" y="936.3838">&#1057;&#1082;&#1088;&#1080;&#1087;&#1090;&#1099;</text><text fill="#000000" font-family="Verdana" font-size="13" lengthAdjust="spacing" textLength="55" x="278.9969" y="952.1831">&#1079;&#1074;&#1086;&#1085;&#1082;&#1086;&#1074;</text></g><!--link CLIENT to SITE--><g id="link_CLIENT_SITE"><path d="M739.314,136.2273 C733.324,158.5073 725.854,187.1373 719.884,212.7573 C702.914,285.5473 687.1165,366.2332 678.9865,408.9232 " fill="none" id="CLIENT-to-SITE" style="stroke:#000000;stroke-width:1.0;"/><polygon fill="#000000" points="677.864,414.8173,683.4771,406.7245,678.7994,409.9056,675.6183,405.2279,677.864,414.8173" style="stroke:#000000;stroke-width:1.0;"/><text fill="#000000" font-family="Verdana" font-size="13" lengthAdjust="spacing" textLength="64" x="720.884" y="265.8371">&#1055;&#1088;&#1086;&#1089;&#1084;&#1086;&#1090;&#1088;</text></g><!--link CLIENT to IB--><g id="link_CLIENT_IB"><path d="M775.954,112.5373 C797.854,125.4473 829.554,145.2673 854.884,165.7573 C941.264,235.6173 1007.9652,344.1795 1039.5652,401.1895 " fill="none" id="CLIENT-to-IB" style="stroke:#000000;stroke-width:1.0;"/><polygon fill="#000000" points="1042.474,406.4373,1041.6093,396.6265,1040.05,402.0642,1034.6123,400.5048,1042.474,406.4373" style="stroke:#000000;stroke-width:1.0;"/><text fill="#000000" font-family="Verdana" font-size="13" lengthAdjust="spacing" textLength="63" x="979.754" y="257.8371">&#1055;&#1083;&#1072;&#1090;&#1077;&#1078;&#1080;,</text><text fill="#000000" font-family="Verdana" font-size="13" lengthAdjust="spacing" textLength="37" x="992.754" y="273.6364">&#1089;&#1095;&#1077;&#1090;&#1072;</text></g><!--link CLIENT to BRANCH_EMP--><g id="link_CLIENT_BRANCH_EMP"><path d="M723.504,108.3373 C695.044,120.3273 648.964,141.3773 612.884,165.7573 C589.424,181.6073 570.0302,198.182 551.0602,216.062 " fill="none" id="CLIENT-to-BRANCH_EMP" style="stroke:#000000;stroke-width:1.0;"/><polygon fill="#000000" points="546.694,220.1773,555.9869,216.9151,550.3325,216.7478,550.4998,211.0935,546.694,220.1773" style="stroke:#000000;stroke-width:1.0;"/><text fill="#000000" font-family="Verdana" font-size="13" lengthAdjust="spacing" textLength="38" x="613.884" y="179.8271">&#1042;&#1080;&#1079;&#1080;&#1090;</text></g><!--link CLIENT to CC_OPER--><g id="link_CLIENT_CC_OPER"><path d="M772.164,136.0273 C785.464,158.8873 799.4356,182.9018 813.5456,207.1418 " fill="none" id="CLIENT-to-CC_OPER" style="stroke:#000000;stroke-width:1.0;"/><polygon fill="#000000" points="816.564,212.3273,815.4933,202.5368,814.0486,208.0061,808.5794,206.5614,816.564,212.3273" style="stroke:#000000;stroke-width:1.0;"/><text fill="#000000" font-family="Verdana" font-size="13" lengthAdjust="spacing" textLength="48" x="797.884" y="179.8271">&#1047;&#1074;&#1086;&#1085;&#1086;&#1082;</text></g><!--link BRANCH_EMP to ABS--><g id="link_BRANCH_EMP_ABS"><path d="M499.214,308.1273 C484.554,387.3573 456.4255,539.3874 444.8555,601.9274 " fill="none" id="BRANCH_EMP-to-ABS" style="stroke:#000000;stroke-width:1.0;"/><polygon fill="#000000" points="443.764,607.8273,449.3345,599.7051,444.6736,602.9107,441.468,598.2498,443.764,607.8273" style="stroke:#000000;stroke-width:1.0;"/><text fill="#000000" font-family="Verdana" font-size="13" lengthAdjust="spacing" textLength="46" x="489.964" y="447.8771">&#1056;&#1072;&#1073;&#1086;&#1090;&#1072;</text></g><!--link BACK_EMP to ABS--><g id="link_BACK_EMP_ABS"><path d="M340.674,490.1773 C349.424,510.0773 360.604,533.1673 372.884,552.8273 C385.134,572.4173 397.5263,588.0802 410.8863,603.4402 " fill="none" id="BACK_EMP-to-ABS" style="stroke:#000000;stroke-width:1.0;"/><polygon fill="#000000" points="414.824,607.9673,411.9356,598.5515,411.5426,604.1947,405.8994,603.8017,414.824,607.9673" style="stroke:#000000;stroke-width:1.0;"/><text fill="#000000" font-family="Verdana" font-size="13" lengthAdjust="spacing" textLength="72" x="373.884" y="541.8971">&#1054;&#1073;&#1088;&#1072;&#1073;&#1086;&#1090;&#1082;&#1072;</text></g><!--link BACK_EMP to EXCEL--><g id="link_BACK_EMP_EXCEL"><path d="M283.044,484.7373 C247.984,522.1273 201.5576,571.64 171.7176,603.47 " fill="none" id="BACK_EMP-to-EXCEL" style="stroke:#000000;stroke-width:1.0;"/><polygon fill="#000000" points="167.614,607.8473,176.6876,604.0171,171.0337,604.1996,170.8512,598.5457,167.614,607.8473" style="stroke:#000000;stroke-width:1.0;"/><text fill="#000000" font-family="Verdana" font-size="13" lengthAdjust="spacing" textLength="55" x="249.414" y="541.8971">&#1056;&#1072;&#1089;&#1095;&#1077;&#1090;&#1099;</text></g><!--link CREDIT_MGR to CREDIT_PIPELINE--><g id="link_CREDIT_MGR_CREDIT_PIPELINE"><path d="M1268.884,490.0073 C1268.884,527.0973 1268.884,571.6173 1268.884,601.9673 " fill="none" id="CREDIT_MGR-to-CREDIT_PIPELINE" style="stroke:#000000;stroke-width:1.0;"/><polygon fill="#000000" points="1268.884,607.9673,1272.884,598.9673,1268.884,602.9673,1264.884,598.9673,1268.884,607.9673" style="stroke:#000000;stroke-width:1.0;"/><text fill="#000000" font-family="Verdana" font-size="13" lengthAdjust="spacing" textLength="72" x="1269.884" y="533.8971">&#1054;&#1073;&#1088;&#1072;&#1073;&#1086;&#1090;&#1082;&#1072;</text><text fill="#000000" font-family="Verdana" font-size="13" lengthAdjust="spacing" textLength="47" x="1282.384" y="549.6964">&#1079;&#1072;&#1103;&#1074;&#1086;&#1082;</text></g><!--link CC_OPER to CC--><g id="link_CC_OPER_CC"><path d="M848.564,308.1073 C851.974,342.1773 855.8689,381.0869 858.6589,409.0769 " fill="none" id="CC_OPER-to-CC" style="stroke:#000000;stroke-width:1.0;"/><polygon fill="#000000" points="859.254,415.0473,862.3416,405.6949,858.7581,410.072,854.381,406.4884,859.254,415.0473" style="stroke:#000000;stroke-width:1.0;"/><text fill="#000000" font-family="Verdana" font-size="13" lengthAdjust="spacing" textLength="78" x="853.884" y="351.8571">&#1054;&#1073;&#1088;&#1072;&#1097;&#1077;&#1085;&#1080;&#1103;</text></g><!--link EXCEL to GMN56--><g id="link_EXCEL_GMN56"><path d="M179.454,607.7773 C217.394,581.1573 279.594,542.5773 340.384,527.0173 C461.374,496.0473 1344.694,491.3573 1464.384,527.0173 C1501.894,538.1873 1538.814,560.8673 1568.234,582.5873 " fill="none" id="EXCEL-GMN56" style="stroke:#000000;stroke-width:1.0;stroke-dasharray:7.0,7.0;"/></g><rect fill="none" height="82.0586" id="_legend" rx="7.5" ry="7.5" style="stroke:#000000;stroke-width:1.0;" width="247" x="1502.384" y="1014.1773"/><text fill="#000000" font-family="Verdana" font-size="14" font-weight="bold" lengthAdjust="spacing" textLength="37" x="1512.384" y="1035.2525">&#1062;&#1074;&#1077;&#1090;</text><text fill="#000000" font-family="Verdana" font-size="14" font-weight="bold" lengthAdjust="spacing" textLength="127" x="1606.384" y="1035.2525">&#1058;&#1080;&#1087; &#1080;&#1085;&#1090;&#1077;&#1075;&#1088;&#1072;&#1094;&#1080;&#1080;</text><rect fill="#008000" height="17.0146" style="stroke:none;stroke-width:1.0;" width="94" x="1507.384" y="1038.192"/><text fill="#000000" font-family="Verdana" font-size="14" lengthAdjust="spacing" textLength="63" x="1512.384" y="1052.2671">&#1047;&#1077;&#1083;&#1077;&#1085;&#1099;&#1081;</text><text fill="#000000" font-family="Verdana" font-size="14" lengthAdjust="spacing" textLength="68" x="1606.384" y="1052.2671">Real-time</text><rect fill="#FF0000" height="17.0146" style="stroke:none;stroke-width:1.0;" width="94" x="1507.384" y="1055.2066"/><text fill="#000000" font-family="Verdana" font-size="14" lengthAdjust="spacing" textLength="63" x="1512.384" y="1069.2818">&#1050;&#1088;&#1072;&#1089;&#1085;&#1099;&#1081;</text><text fill="#000000" font-family="Verdana" font-size="14" lengthAdjust="spacing" textLength="133" x="1606.384" y="1069.2818">Batch (&#1088;&#1072;&#1079; &#1074; &#1076;&#1077;&#1085;&#1100;)</text><rect fill="#FFA500" height="17.0146" style="stroke:none;stroke-width:1.0;" width="94" x="1507.384" y="1072.2213"/><text fill="#000000" font-family="Verdana" font-size="14" lengthAdjust="spacing" textLength="84" x="1512.384" y="1086.2964">&#1054;&#1088;&#1072;&#1085;&#1078;&#1077;&#1074;&#1099;&#1081;</text><text fill="#000000" font-family="Verdana" font-size="14" lengthAdjust="spacing" textLength="49" x="1606.384" y="1086.2964">&#1056;&#1091;&#1095;&#1085;&#1072;&#1103;</text><line style="stroke:#000000;stroke-width:1.0;" x1="1507.384" x2="1744.384" y1="1021.1773" y2="1021.1773"/><line style="stroke:#000000;stroke-width:1.0;" x1="1507.384" x2="1744.384" y1="1038.192" y2="1038.192"/><line style="stroke:#000000;stroke-width:1.0;" x1="1507.384" x2="1744.384" y1="1055.2066" y2="1055.2066"/><line style="stroke:#000000;stroke-width:1.0;" x1="1507.384" x2="1744.384" y1="1072.2213" y2="1072.2213"/><line style="stroke:#000000;stroke-width:1.0;" x1="1507.384" x2="1744.384" y1="1089.2359" y2="1089.2359"/><line style="stroke:#000000;stroke-width:1.0;" x1="1507.384" x2="1507.384" y1="1021.1773" y2="1089.2359"/><line style="stroke:#000000;stroke-width:1.0;" x1="1601.384" x2="1601.384" y1="1021.1773" y2="1089.2359"/><line style="stroke:#000000;stroke-width:1.0;" x1="1744.384" x2="1744.384" y1="1021.1773" y2="1089.2359"/><!--SRC=[dLTjRzjK5FxkNt79Fh1Lf0qCEZP1fSHnjh2cDKc4a1PKUQcNXYLsvNXe4qDgKiP0WurEIA1gsiW4V4wxfarVqlw5wx_0B-4vzzgntQIhXABMSNoUy_ASbtlyZhjYDasssZ3gbkBMtOR9UDTxnFlyYFSO7_2Xry7D6s-DzxmVS3zW_0Gt0tx8Z_ak7WtnVP_nBTx3rmE04b3G4NSxmAnvdOJIkbktLWt7QBBRHlLkpR7lMSkgtR0TTY6dqISYKRMRgxPbMcx9VG1l7BFg6bQjOIhAkqoxxvgEPJHOwK7BDPijPHNgZ9e9cyzXh-_zADpfCw_D1rvRk7xaFKd0J8e-x5k5iLjymtkA48uPFy2b3pS7a1nwJxn7p8STYn3tls96YsLkve7FQREgAj2l0Jd4tm48E4hYtmaC4pq2Lh4kyYv_mRkN1BYipQkBCVWhIGhiRU3QXXeOgbX2tM4I7FU9SszDmFLqiRoW5PTKTQJZEo8YvzYMcxJltAbNpGba_4NXaHguvtrFCL5uatZHPdENSpcVbowojkzrAfP-GvyfcaRLdVww9VmevSiQkt0rfMbNKqBq3raOi4EqmuwV_ugLBkdJ2rgP5RvGArQXn4gVpmiL-KnCGJTqX0hjTFIyLx423sO-CxunPdIxvTOSCr17Z7nyHTMq3DGj6wvnssWXT6am8GqkPM4pUva-CQ5GLKAgYWeAVbNRCLd6i52LjP3NwAy9cH1jrkVkLxx1knKhQpPML-epYuvHRPZ2qNIcHAApcTcufrA4PJDKCG9zAU7Bn_s-9UifYU8-z9xoFPcGWj2Q_YYLaXvduEJP1R7X_S8FpYs6N0hb41J3PhmtgCSfIKE-ZP_tAVKLIpMQw6I3PVI2I9BCJ57BvijBUbxNvlCBA9jiDftAPYTaNLI_RBKXVqCfrn-uAxOrasiOhRioJdMnc5-u7b5o1eERSTyabu4FvnU2RDk8DrA1RtwiFWg6TGzZI7VigjbgcL6g__JMlSS-ms9K7bDL8-gsv1X9KxEIO-r-rMmmCJlQmA2Fl2SLIn3KGoZ7_41me7sfQlE4p5v9YURHcaQzuO-C8-HkNKozWs12Ir0XdGz1Vb5R5gPftRPQBCdGNOsaMs-Q2ZepcPpp- -KQGlYRNAB6bjCq4KZufKaYhp2xdi7uCU_3aHDST-00wfFYa31GwWGsmEO546rQ2lgMLCcUcsZCbw2-mVEqdf-iY9wVScfCLI13tK82NVYvXJdVGHa-6scYfoGbP_NRR9ukRK95QsoY4q492qV2UfeeEvQbZE5MLnG_nkdfkR7kWXeX0uVV5wN4zsQG2ngZFvFZZhayvZRf2Max5nwn7lV_N6IKc_y17sC3YPcOWu1YA2rgfJ8xCu7HND2vVYuWxFLgw8aYcoiv7PPfqFRemMTe22epYcaBtT-XpeH2sy4UOogocmLMgX7j98xIljYO7jCWZ0u5QDiEyP6Lu9IIhjXd1XWwOexmFJ53Xc9CH1GWf7JLjPsMOj05m4tiCmDvyie3SJwlBPH7ZxiK1Ffz7Uw9GKC1mgqTVn4QocwYLQcONb1lB6a5_QtWhVXfr9FOj7epXdmXL1Cdk_AqYQrh24cqJc3QBul2zU98mSlJczc4BIDO01PrhQWeCd1PKhJn-9CEw3RDEe8aea9vVnY2XfuurNRvu3qnmMNYUZ7fa1s1UWuszYYMc93lYv3utKyW3eA44a4detKtgZ8O2pYCIRmSgyMud2n8NrTu42MKa5BfsVZa6TSjoWuz88yl6kOo71bQ5EFzD2eTHR5i5wj-lRRYClkEz0W7tTIKP1_g3-MIScrg2h__k_PQ3iRan1UKY-G2LIT-swNzcdtmeVVuaW-C75rOQNOejmXtdPzWls5OmtuBvDvsa0SoBm5jGwuZ3krjyUwXbJB-Ot5E9yywfXNJMcOKkA8qp1hT20A0VVWfu__GBkDrnFVNrDIJNyOUalWdSbZDCLICtv9YONiO7lA18COgn3RbU1c92JBPHJc66TzceqaSuEJicAE8vP55htxRFZmw_010A38WvJy0]--></g></svg>