<?xml version="1.0" encoding="us-ascii" standalone="no"?><svg xmlns="http://www.w3.org/2000/svg" xmlns:xlink="http://www.w3.org/1999/xlink" contentStyleType="text/css" height="942px" preserveAspectRatio="none" style="width:2483px;height:942px;background:#FEFEFE;" version="1.1" viewBox="0 0 2483 942" width="2483px" zoomAndPan="magnify"><defs/><g><rect fill="#FEFEFE" height="942" style="stroke:none;stroke-width:1.0;" width="2483" x="0" y="0"/><text fill="#000000" font-family="Verdana" font-size="22" font-weight="bold" lengthAdjust="spacing" textLength="520" x="977" y="37.1182">&#1040;&#1088;&#1093;&#1080;&#1090;&#1077;&#1082;&#1090;&#1091;&#1088;&#1072; MVP - &#1044;&#1077;&#1087;&#1086;&#1079;&#1080;&#1090;&#1099; &#1080; &#1050;&#1088;&#1077;&#1076;&#1080;&#1090;&#1099;</text><!--cluster Frontend Layer--><g id="cluster_Frontend Layer"><path d="M13.5,215.7673 L133.5,215.7673 A3.75,3.75 0 0 1 136,218.2673 L143,238.782 L393.5,238.782 A2.5,2.5 0 0 1 396,241.282 L396,349.2973 A2.5,2.5 0 0 1 393.5,351.7973 L13.5,351.7973 A2.5,2.5 0 0 1 11,349.2973 L11,218.2673 A2.5,2.5 0 0 1 13.5,215.7673 " fill="#E6F3FF" style="stroke:#000000;stroke-width:1.0;"/><line style="stroke:#000000;stroke-width:1.0;" x1="11" x2="143" y1="238.782" y2="238.782"/><text fill="#000000" font-family="Verdana" font-size="14" font-weight="bold" lengthAdjust="spacing" textLength="119" x="15" y="231.8425">Frontend Layer</text></g><!--cluster Integration Layer (NEW)--><g id="cluster_Integration Layer (NEW)"><path d="M210.5,430.2973 L408.5,430.2973 A3.75,3.75 0 0 1 411,432.7973 L418,453.312 L806.5,453.312 A2.5,2.5 0 0 1 809,455.812 L809,748.8573 A2.5,2.5 0 0 1 806.5,751.3573 L210.5,751.3573 A2.5,2.5 0 0 1 208,748.8573 L208,432.7973 A2.5,2.5 0 0 1 210.5,430.2973 " fill="#FFE6E6" style="stroke:#000000;stroke-width:1.0;"/><line style="stroke:#000000;stroke-width:1.0;" x1="208" x2="418" y1="453.312" y2="453.312"/><text fill="#000000" font-family="Verdana" font-size="14" font-weight="bold" lengthAdjust="spacing" textLength="197" x="212" y="446.3725">Integration Layer (NEW)</text></g><!--cluster Business Services--><g id="cluster_Business Services"><path d="M835.5,215.7673 L975.5,215.7673 A3.75,3.75 0 0 1 978,218.2673 L985,238.782 L1454.5,238.782 A2.5,2.5 0 0 1 1457,241.282 L1457,563.8273 A2.5,2.5 0 0 1 1454.5,566.3273 L835.5,566.3273 A2.5,2.5 0 0 1 833,563.8273 L833,218.2673 A2.5,2.5 0 0 1 835.5,215.7673 " fill="#F0E6FF" style="stroke:#000000;stroke-width:1.0;"/><line style="stroke:#000000;stroke-width:1.0;" x1="833" x2="985" y1="238.782" y2="238.782"/><text fill="#000000" font-family="Verdana" font-size="14" font-weight="bold" lengthAdjust="spacing" textLength="139" x="837" y="231.8425">Business Services</text></g><!--cluster Core Banking Systems--><g id="cluster_Core Banking Systems"><path d="M1483.5,430.2973 L1659.5,430.2973 A3.75,3.75 0 0 1 1662,432.7973 L1669,453.312 L1847.5,453.312 A2.5,2.5 0 0 1 1850,455.812 L1850,927.7673 A2.5,2.5 0 0 1 1847.5,930.2673 L1483.5,930.2673 A2.5,2.5 0 0 1 1481,927.7673 L1481,432.7973 A2.5,2.5 0 0 1 1483.5,430.2973 " fill="#E6FFE6" style="stroke:#000000;stroke-width:1.0;"/><line style="stroke:#000000;stroke-width:1.0;" x1="1481" x2="1669" y1="453.312" y2="453.312"/><text fill="#000000" font-family="Verdana" font-size="14" font-weight="bold" lengthAdjust="spacing" textLength="175" x="1485" y="446.3725">Core Banking Systems</text></g><!--cluster Support Systems--><g id="cluster_Support Systems"><path d="M1876.5,430.2973 L2010.5,430.2973 A3.75,3.75 0 0 1 2013,432.7973 L2020,453.312 L2473.5,453.312 A2.5,2.5 0 0 1 2476,455.812 L2476,563.8273 A2.5,2.5 0 0 1 2473.5,566.3273 L1876.5,566.3273 A2.5,2.5 0 0 1 1874,563.8273 L1874,432.7973 A2.5,2.5 0 0 1 1876.5,430.2973 " fill="#FFFACD" style="stroke:#000000;stroke-width:1.0;"/><line style="stroke:#000000;stroke-width:1.0;" x1="1874" x2="2020" y1="453.312" y2="453.312"/><text fill="#000000" font-family="Verdana" font-size="14" font-weight="bold" lengthAdjust="spacing" textLength="133" x="1878" y="446.3725">Support Systems</text></g><!--cluster ??????? ???????--><g id="cluster_&#1042;&#1085;&#1077;&#1096;&#1085;&#1080;&#1077; &#1089;&#1080;&#1089;&#1090;&#1077;&#1084;&#1099;"><path d="M1968.4476,624.8742 C1971.7048,618.1167 1975.8011,616.9786 1980.8564,623.1482 C1984.7843,614.7284 1992.4438,615.1921 1996.4258,623.0967 C1999.5655,616.9457 2006.0476,616.7293 2010.0982,622.007 C2013.1532,616.2475 2019.3263,615.0233 2023.1933,621.1094 C2026.5211,615.441 2032.0649,614.9038 2035.9707,620.4509 C2038.1747,612.5078 2044.6106,611.3728 2049.6831,617.6932 C2054.3926,610.5953 2059.0782,611.5884 2063.3285,618.1518 C2068.0265,612.2918 2073.4869,613.6359 2076.5286,619.9479 C2082.0382,613.3899 2088.8225,615.2182 2092.2156,622.3697 C2096.644,616.8133 2102.268,616.341 2105.4772,623.6284 C2109.2961,618.0586 2115.8728,618.8281 2118.7673,624.7019 C2126.7972,615.6343 2136.0704,618.5387 2138,630.3273 C2139.3871,630.7246 2139.5316,631.4526 2138.6219,632.5056 C2144.6274,634.8969 2145.6378,639.3421 2140.4616,643.5894 C2148.0144,648.1148 2146.2354,653.063 2140.2989,657.4298 C2147.6242,660.5821 2149.2104,667.4133 2141.9921,672.2296 C2148.403,675.4272 2147.3346,680.0031 2142.8562,684.0001 C2149.6295,687.775 2151.0797,694.7379 2143.0583,698.716 C2147.9833,703.1872 2147.0981,707.8852 2141.0915,710.5377 C2146.6884,714.5139 2146.8434,719.5762 2140.62,723.109 C2147.9947,734.4817 2144.0732,741.6995 2131,743.3573 C2131.5426,743.4864 2131.5736,743.9561 2131.1988,744.2825 C2127.0399,751.7692 2122.7734,751.8142 2117.6666,745.1916 C2115.1372,751.1367 2109.05,753.2079 2104.607,747.3 C2101.4861,754.0499 2095.4799,754.1151 2091.5181,748.1667 C2089.193,754.5408 2083.1253,756.8576 2078.19,751.0142 C2074.4334,757.1469 2068.7886,757.7135 2064.0111,752.2639 C2059.717,759.5118 2054.8426,758.4654 2049.8649,753.0261 C2044.3598,759.0419 2039.6701,757.2578 2036.6505,750.4625 C2032.4713,755.784 2027.9681,755.8668 2024.0064,750.2119 C2018.0352,757.6499 2012.7866,756.0783 2009.0979,748.0165 C2004.2139,755.4453 1998.7802,755.1694 1994.4299,747.4979 C1989.1903,753.2839 1984.5598,752.2232 1981.0289,745.6458 C1969.4021,753.3891 1962.7262,748.7648 1960,736.3573 C1961.0017,736.2752 1961.3271,736.6776 1960.9886,737.6336 C1954.7195,734.8518 1953.769,729.4175 1959.7386,725.3866 C1950.3467,722.6 1950.0354,717.4626 1955.737,710.5933 C1950.3795,707.2703 1948.9046,701.7481 1955.033,697.7934 C1947.9578,695.7965 1946.4603,690.2385 1951.9808,685.1911 C1945.4415,680.3793 1945.8196,676.1894 1952.9664,672.4352 C1946.1712,666.6305 1947.2724,660.7674 1955.6627,657.7511 C1950.231,651.5195 1951.382,646.1052 1959.8968,644.2459 C1950.5659,634.2986 1956.4617,626.5277 1967,623.3273 C1968.288,623.0217 1968.6424,623.7921 1968.4476,624.8742 " fill="#F0F0F0" style="stroke:#000000;stroke-width:1.0;"/><text fill="#000000" font-family="Verdana" font-size="14" font-weight="bold" lengthAdjust="spacing" textLength="145" x="1976.5" y="642.4025">&#1042;&#1085;&#1077;&#1096;&#1085;&#1080;&#1077; &#1089;&#1080;&#1089;&#1090;&#1077;&#1084;&#1099;</text></g><!--entity SITE--><g id="elem_SITE"><rect fill="#90EE90" height="64.0293" rx="2.5" ry="2.5" style="stroke:#000000;stroke-width:1.0;" width="141" x="239.5" y="271.7673"/><rect fill="#90EE90" height="10" style="stroke:#000000;stroke-width:1.0;" width="15" x="360.5" y="276.7673"/><rect fill="#90EE90" height="2" style="stroke:#000000;stroke-width:1.0;" width="4" x="358.5" y="278.7673"/><rect fill="#90EE90" height="2" style="stroke:#000000;stroke-width:1.0;" width="4" x="358.5" y="282.7673"/><text fill="#000000" font-family="Verdana" font-size="14" lengthAdjust="spacing" textLength="81" x="254.5" y="305.8425">&#1057;&#1072;&#1081;&#1090; &#1073;&#1072;&#1085;&#1082;&#1072;</text><text fill="#000000" font-family="Verdana" font-size="14" lengthAdjust="spacing" textLength="101" x="254.5" y="322.8571">(PHP/React.js)</text></g><!--entity IB--><g id="elem_IB"><rect fill="#90EE90" height="64.0293" rx="2.5" ry="2.5" style="stroke:#000000;stroke-width:1.0;" width="178" x="27" y="271.7673"/><rect fill="#90EE90" height="10" style="stroke:#000000;stroke-width:1.0;" width="15" x="185" y="276.7673"/><rect fill="#90EE90" height="2" style="stroke:#000000;stroke-width:1.0;" width="4" x="183" y="278.7673"/><rect fill="#90EE90" height="2" style="stroke:#000000;stroke-width:1.0;" width="4" x="183" y="282.7673"/><text fill="#000000" font-family="Verdana" font-size="14" lengthAdjust="spacing" textLength="108" x="42" y="305.8425">&#1048;&#1085;&#1090;&#1077;&#1088;&#1085;&#1077;&#1090;-&#1073;&#1072;&#1085;&#1082;</text><text fill="#000000" font-family="Verdana" font-size="14" lengthAdjust="spacing" textLength="138" x="42" y="322.8571">(ASP.NET MVC 4.5)</text></g><!--entity API_GW--><g id="elem_API_GW"><rect fill="#FF6B6B" height="64.0293" rx="2.5" ry="2.5" style="stroke:#000000;stroke-width:1.0;" width="133" x="223.5" y="486.2973"/><rect fill="#FF6B6B" height="10" style="stroke:#000000;stroke-width:1.0;" width="15" x="336.5" y="491.2973"/><rect fill="#FF6B6B" height="2" style="stroke:#000000;stroke-width:1.0;" width="4" x="334.5" y="493.2973"/><rect fill="#FF6B6B" height="2" style="stroke:#000000;stroke-width:1.0;" width="4" x="334.5" y="497.2973"/><text fill="#000000" font-family="Verdana" font-size="14" lengthAdjust="spacing" textLength="89" x="238.5" y="520.3725">API Gateway</text><text fill="#000000" font-family="Verdana" font-size="14" lengthAdjust="spacing" textLength="93" x="238.5" y="537.3871">(nginx/Kong)</text></g><!--entity CACHE--><g id="elem_CACHE"><rect fill="#FFA500" height="64.0293" rx="2.5" ry="2.5" style="stroke:#000000;stroke-width:1.0;" width="174" x="373" y="671.3273"/><rect fill="#FFA500" height="10" style="stroke:#000000;stroke-width:1.0;" width="15" x="527" y="676.3273"/><rect fill="#FFA500" height="2" style="stroke:#000000;stroke-width:1.0;" width="4" x="525" y="678.3273"/><rect fill="#FFA500" height="2" style="stroke:#000000;stroke-width:1.0;" width="4" x="525" y="682.3273"/><text fill="#000000" font-family="Verdana" font-size="14" lengthAdjust="spacing" textLength="134" x="388" y="705.4025">&#1050;&#1101;&#1096; &#1089;&#1087;&#1088;&#1072;&#1074;&#1086;&#1095;&#1085;&#1080;&#1082;&#1086;&#1074;</text><text fill="#000000" font-family="Verdana" font-size="14" lengthAdjust="spacing" textLength="50" x="388" y="722.4171">(Redis)</text></g><!--entity QUEUE--><g id="elem_QUEUE"><rect fill="#FFA500" height="64.0293" rx="2.5" ry="2.5" style="stroke:#000000;stroke-width:1.0;" width="185" x="391.5" y="486.2973"/><rect fill="#FFA500" height="10" style="stroke:#000000;stroke-width:1.0;" width="15" x="556.5" y="491.2973"/><rect fill="#FFA500" height="2" style="stroke:#000000;stroke-width:1.0;" width="4" x="554.5" y="493.2973"/><rect fill="#FFA500" height="2" style="stroke:#000000;stroke-width:1.0;" width="4" x="554.5" y="497.2973"/><text fill="#000000" font-family="Verdana" font-size="14" lengthAdjust="spacing" textLength="145" x="406.5" y="520.3725">&#1054;&#1095;&#1077;&#1088;&#1077;&#1076;&#1100; &#1089;&#1086;&#1086;&#1073;&#1097;&#1077;&#1085;&#1080;&#1081;</text><text fill="#000000" font-family="Verdana" font-size="14" lengthAdjust="spacing" textLength="135" x="406.5" y="537.3871">(RabbitMQ/Kafka*)</text></g><g id="elem_GMN14"><path d="M611,497.5073 L611,514.3073 L576.82,518.3073 L611,522.3073 L611,539.1059 A0,0 0 0 0 611,539.1059 L793,539.1059 A0,0 0 0 0 793,539.1059 L793,507.5073 L783,497.5073 L611,497.5073 A0,0 0 0 0 611,497.5073 " fill="#FFFFFF" style="stroke:#000000;stroke-width:1.0;"/><path d="M783,497.5073 L783,507.5073 L793,507.5073 L783,497.5073 " fill="#FFFFFF" style="stroke:#000000;stroke-width:1.0;"/><ellipse cx="622.5" cy="510.8066" fill="#000000" rx="2.5" ry="2.5" style="stroke:#000000;stroke-width:0.0;"/><text fill="#000000" font-family="Verdana" font-size="13" lengthAdjust="spacing" textLength="149" x="629" y="515.5771">Kafka &#1085;&#1072; &#1087;&#1077;&#1088;&#1089;&#1087;&#1077;&#1082;&#1090;&#1080;&#1074;&#1091;</text><text fill="#000000" font-family="Verdana" font-size="13" lengthAdjust="spacing" textLength="125" x="617" y="531.3764">RabbitMQ &#1076;&#1083;&#1103; MVP</text></g><!--entity DEPOSIT_SVC--><g id="elem_DEPOSIT_SVC"><rect fill="#DDA0DD" height="64.0293" rx="2.5" ry="2.5" style="stroke:#000000;stroke-width:1.0;" width="169" x="848.5" y="271.7673"/><rect fill="#DDA0DD" height="10" style="stroke:#000000;stroke-width:1.0;" width="15" x="997.5" y="276.7673"/><rect fill="#DDA0DD" height="2" style="stroke:#000000;stroke-width:1.0;" width="4" x="995.5" y="278.7673"/><rect fill="#DDA0DD" height="2" style="stroke:#000000;stroke-width:1.0;" width="4" x="995.5" y="282.7673"/><text fill="#000000" font-family="Verdana" font-size="14" lengthAdjust="spacing" textLength="129" x="863.5" y="305.8425">&#1057;&#1077;&#1088;&#1074;&#1080;&#1089; &#1076;&#1077;&#1087;&#1086;&#1079;&#1080;&#1090;&#1086;&#1074;</text><text fill="#000000" font-family="Verdana" font-size="14" lengthAdjust="spacing" textLength="118" x="863.5" y="322.8571">(NEW - Java/C#)</text></g><!--entity CREDIT_SVC--><g id="elem_CREDIT_SVC"><rect fill="#DDA0DD" height="64.0293" rx="2.5" ry="2.5" style="stroke:#000000;stroke-width:1.0;" width="162" x="1052" y="271.7673"/><rect fill="#DDA0DD" height="10" style="stroke:#000000;stroke-width:1.0;" width="15" x="1194" y="276.7673"/><rect fill="#DDA0DD" height="2" style="stroke:#000000;stroke-width:1.0;" width="4" x="1192" y="278.7673"/><rect fill="#DDA0DD" height="2" style="stroke:#000000;stroke-width:1.0;" width="4" x="1192" y="282.7673"/><text fill="#000000" font-family="Verdana" font-size="14" lengthAdjust="spacing" textLength="122" x="1067" y="305.8425">&#1057;&#1077;&#1088;&#1074;&#1080;&#1089; &#1082;&#1088;&#1077;&#1076;&#1080;&#1090;&#1086;&#1074;</text><text fill="#000000" font-family="Verdana" font-size="14" lengthAdjust="spacing" textLength="118" x="1067" y="322.8571">(NEW - Java/C#)</text></g><!--entity RATE_SVC--><g id="elem_RATE_SVC"><rect fill="#DDA0DD" height="64.0293" rx="2.5" ry="2.5" style="stroke:#000000;stroke-width:1.0;" width="144" x="894" y="486.2973"/><rect fill="#DDA0DD" height="10" style="stroke:#000000;stroke-width:1.0;" width="15" x="1018" y="491.2973"/><rect fill="#DDA0DD" height="2" style="stroke:#000000;stroke-width:1.0;" width="4" x="1016" y="493.2973"/><rect fill="#DDA0DD" height="2" style="stroke:#000000;stroke-width:1.0;" width="4" x="1016" y="497.2973"/><text fill="#000000" font-family="Verdana" font-size="14" lengthAdjust="spacing" textLength="102" x="909" y="520.3725">&#1057;&#1077;&#1088;&#1074;&#1080;&#1089; &#1089;&#1090;&#1072;&#1074;&#1086;&#1082;</text><text fill="#000000" font-family="Verdana" font-size="14" lengthAdjust="spacing" textLength="104" x="909" y="537.3871">(NEW - &#1074; &#1040;&#1041;&#1057;)</text></g><!--entity NOTIFY_SVC--><g id="elem_NOTIFY_SVC"><rect fill="#DDA0DD" height="64.0293" rx="2.5" ry="2.5" style="stroke:#000000;stroke-width:1.0;" width="191" x="1249.5" y="271.7673"/><rect fill="#DDA0DD" height="10" style="stroke:#000000;stroke-width:1.0;" width="15" x="1420.5" y="276.7673"/><rect fill="#DDA0DD" height="2" style="stroke:#000000;stroke-width:1.0;" width="4" x="1418.5" y="278.7673"/><rect fill="#DDA0DD" height="2" style="stroke:#000000;stroke-width:1.0;" width="4" x="1418.5" y="282.7673"/><text fill="#000000" font-family="Verdana" font-size="14" lengthAdjust="spacing" textLength="151" x="1264.5" y="305.8425">&#1057;&#1077;&#1088;&#1074;&#1080;&#1089; &#1091;&#1074;&#1077;&#1076;&#1086;&#1084;&#1083;&#1077;&#1085;&#1080;&#1081;</text><text fill="#000000" font-family="Verdana" font-size="14" lengthAdjust="spacing" textLength="91" x="1264.5" y="322.8571">(NEW - Java)</text></g><!--entity ABS--><g id="elem_ABS"><rect fill="#98FB98" height="64.0293" rx="2.5" ry="2.5" style="stroke:#000000;stroke-width:1.0;" width="147" x="1497.5" y="486.2973"/><rect fill="#98FB98" height="10" style="stroke:#000000;stroke-width:1.0;" width="15" x="1624.5" y="491.2973"/><rect fill="#98FB98" height="2" style="stroke:#000000;stroke-width:1.0;" width="4" x="1622.5" y="493.2973"/><rect fill="#98FB98" height="2" style="stroke:#000000;stroke-width:1.0;" width="4" x="1622.5" y="497.2973"/><text fill="#000000" font-family="Verdana" font-size="14" lengthAdjust="spacing" textLength="30" x="1512.5" y="520.3725">&#1040;&#1041;&#1057;</text><text fill="#000000" font-family="Verdana" font-size="14" lengthAdjust="spacing" textLength="107" x="1512.5" y="537.3871">(Delphi/Oracle)</text></g><!--entity ABS_DB--><g id="elem_ABS_DB"><path d="M1506,681.8273 C1506,671.8273 1551,671.8273 1551,671.8273 C1551,671.8273 1596,671.8273 1596,681.8273 L1596,724.8566 C1596,734.8566 1551,734.8566 1551,734.8566 C1551,734.8566 1506,734.8566 1506,724.8566 L1506,681.8273 " fill="#D3D3D3" style="stroke:#000000;stroke-width:1.0;"/><path d="M1506,681.8273 C1506,691.8273 1551,691.8273 1551,691.8273 C1551,691.8273 1596,691.8273 1596,681.8273 " fill="none" style="stroke:#000000;stroke-width:1.0;"/><text fill="#000000" font-family="Verdana" font-size="14" lengthAdjust="spacing" textLength="70" x="1516" y="709.9025">Oracle DB</text><text fill="#000000" font-family="Verdana" font-size="14" lengthAdjust="spacing" textLength="42" x="1516" y="726.9171">(&#1040;&#1041;&#1057;)</text></g><!--entity PIPELINE--><g id="elem_PIPELINE"><rect fill="#98FB98" height="64.0293" rx="2.5" ry="2.5" style="stroke:#000000;stroke-width:1.0;" width="193" x="1640.5" y="671.3273"/><rect fill="#98FB98" height="10" style="stroke:#000000;stroke-width:1.0;" width="15" x="1813.5" y="676.3273"/><rect fill="#98FB98" height="2" style="stroke:#000000;stroke-width:1.0;" width="4" x="1811.5" y="678.3273"/><rect fill="#98FB98" height="2" style="stroke:#000000;stroke-width:1.0;" width="4" x="1811.5" y="682.3273"/><text fill="#000000" font-family="Verdana" font-size="14" lengthAdjust="spacing" textLength="153" x="1655.5" y="705.4025">&#1050;&#1088;&#1077;&#1076;&#1080;&#1090;&#1085;&#1099;&#1081; &#1082;&#1086;&#1085;&#1074;&#1077;&#1081;&#1077;&#1088;</text><text fill="#000000" font-family="Verdana" font-size="14" lengthAdjust="spacing" textLength="115" x="1655.5" y="722.4171">(Camunda/Java)</text></g><!--entity PIPELINE_DB--><g id="elem_PIPELINE_DB"><path d="M1608.5,861.2373 C1608.5,851.2373 1659,851.2373 1659,851.2373 C1659,851.2373 1709.5,851.2373 1709.5,861.2373 L1709.5,904.2666 C1709.5,914.2666 1659,914.2666 1659,914.2666 C1659,914.2666 1608.5,914.2666 1608.5,904.2666 L1608.5,861.2373 " fill="#D3D3D3" style="stroke:#000000;stroke-width:1.0;"/><path d="M1608.5,861.2373 C1608.5,871.2373 1659,871.2373 1659,871.2373 C1659,871.2373 1709.5,871.2373 1709.5,861.2373 " fill="none" style="stroke:#000000;stroke-width:1.0;"/><text fill="#000000" font-family="Verdana" font-size="14" lengthAdjust="spacing" textLength="70" x="1618.5" y="889.3125">Oracle DB</text><text fill="#000000" font-family="Verdana" font-size="14" lengthAdjust="spacing" textLength="81" x="1618.5" y="906.3271">(&#1050;&#1086;&#1085;&#1074;&#1077;&#1081;&#1077;&#1088;)</text></g><!--entity CC_SYS--><g id="elem_CC_SYS"><rect fill="#FFD700" height="64.0293" rx="2.5" ry="2.5" style="stroke:#000000;stroke-width:1.0;" width="214" x="2246" y="486.2973"/><rect fill="#FFD700" height="10" style="stroke:#000000;stroke-width:1.0;" width="15" x="2440" y="491.2973"/><rect fill="#FFD700" height="2" style="stroke:#000000;stroke-width:1.0;" width="4" x="2438" y="493.2973"/><rect fill="#FFD700" height="2" style="stroke:#000000;stroke-width:1.0;" width="4" x="2438" y="497.2973"/><text fill="#000000" font-family="Verdana" font-size="14" lengthAdjust="spacing" textLength="145" x="2261" y="520.3725">&#1057;&#1080;&#1089;&#1090;&#1077;&#1084;&#1072; &#1082;&#1086;&#1083;-&#1094;&#1077;&#1085;&#1090;&#1088;&#1072;</text><text fill="#000000" font-family="Verdana" font-size="14" lengthAdjust="spacing" textLength="174" x="2261" y="537.3871">(React/Java/PostgreSQL)</text></g><!--entity SCORING--><g id="elem_SCORING"><rect fill="#FFD700" height="64.0293" rx="2.5" ry="2.5" style="stroke:#000000;stroke-width:1.0;" width="169" x="1889.5" y="486.2973"/><rect fill="#FFD700" height="10" style="stroke:#000000;stroke-width:1.0;" width="15" x="2038.5" y="491.2973"/><rect fill="#FFD700" height="2" style="stroke:#000000;stroke-width:1.0;" width="4" x="2036.5" y="493.2973"/><rect fill="#FFD700" height="2" style="stroke:#000000;stroke-width:1.0;" width="4" x="2036.5" y="497.2973"/><text fill="#000000" font-family="Verdana" font-size="14" lengthAdjust="spacing" textLength="129" x="1904.5" y="520.3725">&#1057;&#1080;&#1089;&#1090;&#1077;&#1084;&#1072; &#1089;&#1082;&#1086;&#1088;&#1080;&#1085;&#1075;&#1072;</text><text fill="#000000" font-family="Verdana" font-size="14" lengthAdjust="spacing" textLength="101" x="1904.5" y="537.3871">(Python/Flask)</text></g><!--entity SMS--><g id="elem_SMS"><rect fill="#FFD700" height="47.0146" rx="2.5" ry="2.5" style="stroke:#000000;stroke-width:1.0;" width="118" x="2093" y="494.8073"/><rect fill="#FFD700" height="10" style="stroke:#000000;stroke-width:1.0;" width="15" x="2191" y="499.8073"/><rect fill="#FFD700" height="2" style="stroke:#000000;stroke-width:1.0;" width="4" x="2189" y="501.8073"/><rect fill="#FFD700" height="2" style="stroke:#000000;stroke-width:1.0;" width="4" x="2189" y="505.8073"/><text fill="#000000" font-family="Verdana" font-size="14" lengthAdjust="spacing" textLength="78" x="2108" y="528.8825">&#1057;&#1052;&#1057;-&#1096;&#1083;&#1102;&#1079;</text></g><!--entity BKI--><g id="elem_BKI"><rect fill="#FFE6CC" height="64.0293" rx="2.5" ry="2.5" style="stroke:#000000;stroke-width:1.0;" width="162" x="1968" y="671.3273"/><rect fill="#FFE6CC" height="10" style="stroke:#000000;stroke-width:1.0;" width="15" x="2110" y="676.3273"/><rect fill="#FFE6CC" height="2" style="stroke:#000000;stroke-width:1.0;" width="4" x="2108" y="678.3273"/><rect fill="#FFE6CC" height="2" style="stroke:#000000;stroke-width:1.0;" width="4" x="2108" y="682.3273"/><text fill="#000000" font-family="Verdana" font-size="14" lengthAdjust="spacing" textLength="122" x="1983" y="705.4025">&#1041;&#1102;&#1088;&#1086; &#1082;&#1088;&#1077;&#1076;&#1080;&#1090;&#1085;&#1099;&#1093;</text><text fill="#000000" font-family="Verdana" font-size="14" lengthAdjust="spacing" textLength="58" x="1983" y="722.4171">&#1080;&#1089;&#1090;&#1086;&#1088;&#1080;&#1081;</text></g><!--entity NEW_CLIENT--><g id="elem_NEW_CLIENT"><ellipse cx="310" cy="75.2473" fill="#FFFFFF" rx="8" ry="8" style="stroke:#000000;stroke-width:1.0;"/><path d="M310,83.2473 L310,110.2473 M297,91.2473 L323,91.2473 M310,110.2473 L297,125.2473 M310,110.2473 L323,125.2473 " fill="none" style="stroke:#000000;stroke-width:1.0;"/><text fill="#000000" font-family="Verdana" font-size="14" lengthAdjust="spacing" textLength="102" x="259" y="141.3225">&#1053;&#1086;&#1074;&#1099;&#1081; &#1082;&#1083;&#1080;&#1077;&#1085;&#1090;</text></g><!--entity CLIENT--><g id="elem_CLIENT"><ellipse cx="116" cy="66.7373" fill="#FFFFFF" rx="8" ry="8" style="stroke:#000000;stroke-width:1.0;"/><path d="M116,74.7373 L116,101.7373 M103,82.7373 L129,82.7373 M116,101.7373 L103,116.7373 M116,101.7373 L129,116.7373 " fill="none" style="stroke:#000000;stroke-width:1.0;"/><text fill="#000000" font-family="Verdana" font-size="14" lengthAdjust="spacing" textLength="110" x="61" y="132.8125">&#1057;&#1091;&#1097;&#1077;&#1089;&#1090;&#1074;&#1091;&#1102;&#1097;&#1080;&#1081;</text><text fill="#000000" font-family="Verdana" font-size="14" lengthAdjust="spacing" textLength="50" x="61" y="149.8271">&#1082;&#1083;&#1080;&#1077;&#1085;&#1090;</text></g><!--entity BRANCH_MGR--><g id="elem_BRANCH_MGR"><ellipse cx="1729" cy="265.2673" fill="#FFFFFF" rx="8" ry="8" style="stroke:#000000;stroke-width:1.0;"/><path d="M1729,273.2673 L1729,300.2673 M1716,281.2673 L1742,281.2673 M1729,300.2673 L1716,315.2673 M1729,300.2673 L1742,315.2673 " fill="none" style="stroke:#000000;stroke-width:1.0;"/><text fill="#000000" font-family="Verdana" font-size="14" lengthAdjust="spacing" textLength="74" x="1691.5" y="331.3425">&#1052;&#1077;&#1085;&#1077;&#1076;&#1078;&#1077;&#1088;</text><text fill="#000000" font-family="Verdana" font-size="14" lengthAdjust="spacing" textLength="75" x="1691.5" y="348.3571">&#1086;&#1090;&#1076;&#1077;&#1083;&#1077;&#1085;&#1080;&#1103;</text></g><!--entity BACK_OFFICE--><g id="elem_BACK_OFFICE"><ellipse cx="1542" cy="265.2673" fill="#FFFFFF" rx="8" ry="8" style="stroke:#000000;stroke-width:1.0;"/><path d="M1542,273.2673 L1542,300.2673 M1529,281.2673 L1555,281.2673 M1542,300.2673 L1529,315.2673 M1542,300.2673 L1555,315.2673 " fill="none" style="stroke:#000000;stroke-width:1.0;"/><text fill="#000000" font-family="Verdana" font-size="14" lengthAdjust="spacing" textLength="74" x="1504.5" y="331.3425">&#1052;&#1077;&#1085;&#1077;&#1076;&#1078;&#1077;&#1088;</text><text fill="#000000" font-family="Verdana" font-size="14" lengthAdjust="spacing" textLength="75" x="1504.5" y="348.3571">&#1073;&#1101;&#1082;-&#1086;&#1092;&#1080;&#1089;&#1072;</text></g><!--entity CC_OPER--><g id="elem_CC_OPER"><ellipse cx="2353" cy="265.2673" fill="#FFFFFF" rx="8" ry="8" style="stroke:#000000;stroke-width:1.0;"/><path d="M2353,273.2673 L2353,300.2673 M2340,281.2673 L2366,281.2673 M2353,300.2673 L2340,315.2673 M2353,300.2673 L2366,315.2673 " fill="none" style="stroke:#000000;stroke-width:1.0;"/><text fill="#000000" font-family="Verdana" font-size="14" lengthAdjust="spacing" textLength="69" x="2312.5" y="331.3425">&#1054;&#1087;&#1077;&#1088;&#1072;&#1090;&#1086;&#1088;</text><text fill="#000000" font-family="Verdana" font-size="14" lengthAdjust="spacing" textLength="81" x="2312.5" y="348.3571">&#1082;&#1086;&#1083;-&#1094;&#1077;&#1085;&#1090;&#1088;&#1072;</text></g><g id="elem_GMN57"><path d="M1866,830.3573 L1866,935.1532 A0,0 0 0 0 1866,935.1532 L2380,935.1532 A0,0 0 0 0 2380,935.1532 L2380,840.3573 L2370,830.3573 L2105.38,830.3573 L2062.06,735.6473 L2097.38,830.3573 L1866,830.3573 A0,0 0 0 0 1866,830.3573 " fill="#FFFFFF" style="stroke:#000000;stroke-width:1.0;"/><path d="M2370,830.3573 L2370,840.3573 L2380,840.3573 L2370,830.3573 " fill="#FFFFFF" style="stroke:#000000;stroke-width:1.0;"/><text fill="#000000" font-family="Verdana" font-size="13" font-weight="bold" lengthAdjust="spacing" textLength="207" x="1872" y="848.4271">&#1050;&#1083;&#1102;&#1095;&#1077;&#1074;&#1099;&#1077; &#1080;&#1079;&#1084;&#1077;&#1085;&#1077;&#1085;&#1080;&#1103; MVP:</text><text fill="#000000" font-family="Verdana" font-size="13" lengthAdjust="spacing" textLength="356" x="1872" y="864.2264">&#8226; API Gateway &#1076;&#1083;&#1103; &#1079;&#1072;&#1097;&#1080;&#1090;&#1099; &#1040;&#1041;&#1057; &#1086;&#1090; &#1087;&#1088;&#1103;&#1084;&#1099;&#1093; &#1079;&#1072;&#1087;&#1088;&#1086;&#1089;&#1086;&#1074;</text><text fill="#000000" font-family="Verdana" font-size="13" lengthAdjust="spacing" textLength="493" x="1872" y="880.0258">&#8226; &#1050;&#1101;&#1096;&#1080;&#1088;&#1086;&#1074;&#1072;&#1085;&#1080;&#1077; &#1089;&#1087;&#1088;&#1072;&#1074;&#1086;&#1095;&#1085;&#1080;&#1082;&#1086;&#1074; (&#1088;&#1077;&#1096;&#1077;&#1085;&#1080;&#1077; &#1087;&#1088;&#1086;&#1073;&#1083;&#1077;&#1084;&#1099; &#1087;&#1088;&#1086;&#1080;&#1079;&#1074;&#1086;&#1076;&#1080;&#1090;&#1077;&#1083;&#1100;&#1085;&#1086;&#1089;&#1090;&#1080;)</text><text fill="#000000" font-family="Verdana" font-size="13" lengthAdjust="spacing" textLength="345" x="1872" y="895.8251">&#8226; &#1054;&#1095;&#1077;&#1088;&#1077;&#1076;&#1100; &#1089;&#1086;&#1086;&#1073;&#1097;&#1077;&#1085;&#1080;&#1081; &#1076;&#1083;&#1103; &#1072;&#1089;&#1080;&#1085;&#1093;&#1088;&#1086;&#1085;&#1085;&#1086;&#1081; &#1086;&#1073;&#1088;&#1072;&#1073;&#1086;&#1090;&#1082;&#1080;</text><text fill="#000000" font-family="Verdana" font-size="13" lengthAdjust="spacing" textLength="317" x="1872" y="911.6244">&#8226; &#1052;&#1080;&#1082;&#1088;&#1086;&#1089;&#1077;&#1088;&#1074;&#1080;&#1089;&#1099; &#1076;&#1083;&#1103; &#1085;&#1086;&#1074;&#1086;&#1081; &#1092;&#1091;&#1085;&#1082;&#1094;&#1080;&#1086;&#1085;&#1072;&#1083;&#1100;&#1085;&#1086;&#1089;&#1090;&#1080;</text><text fill="#000000" font-family="Verdana" font-size="13" lengthAdjust="spacing" textLength="246" x="1872" y="927.4237">&#8226; &#1057;&#1077;&#1088;&#1074;&#1080;&#1089; &#1089;&#1090;&#1072;&#1074;&#1086;&#1082; &#1074; &#1040;&#1041;&#1057; &#1074;&#1084;&#1077;&#1089;&#1090;&#1086; Excel</text></g><!--link NEW_CLIENT to SITE--><g id="link_NEW_CLIENT_SITE"><path d="M310,144.6073 C310,181.5873 310,230.8573 310,265.3173 " fill="none" id="NEW_CLIENT-to-SITE" style="stroke:#000000;stroke-width:1.0;"/><polygon fill="#000000" points="310,271.3173,314,262.3173,310,266.3173,306,262.3173,310,271.3173" style="stroke:#000000;stroke-width:1.0;"/><text fill="#000000" font-family="Verdana" font-size="13" lengthAdjust="spacing" textLength="48" x="311" y="196.8371">&#1047;&#1072;&#1103;&#1074;&#1082;&#1072;</text></g><!--link CLIENT to IB--><g id="link_CLIENT_IB"><path d="M116,152.8273 C116,189.4873 116,233.5773 116,265.5573 " fill="none" id="CLIENT-to-IB" style="stroke:#000000;stroke-width:1.0;"/><polygon fill="#000000" points="116,271.5573,120,262.5573,116,266.5573,112,262.5573,116,271.5573" style="stroke:#000000;stroke-width:1.0;"/><text fill="#000000" font-family="Verdana" font-size="13" lengthAdjust="spacing" textLength="48" x="117" y="196.8371">&#1047;&#1072;&#1103;&#1074;&#1082;&#1072;</text></g><!--link BRANCH_MGR to ABS--><g id="link_BRANCH_MGR_ABS"><path d="M1718.05,351.7673 C1711.9,372.1373 1702.81,395.5573 1690,414.2973 C1670.8,442.3773 1646.9198,463.9038 1622.5298,482.3038 " fill="none" id="BRANCH_MGR-to-ABS" style="stroke:#000000;stroke-width:1.0;"/><polygon fill="#000000" points="1617.74,485.9173,1627.3338,483.6903,1621.7315,482.9061,1622.5158,477.3038,1617.74,485.9173" style="stroke:#000000;stroke-width:1.0;"/><text fill="#000000" font-family="Verdana" font-size="13" lengthAdjust="spacing" textLength="72" x="1707.54" y="403.3671">&#1054;&#1073;&#1088;&#1072;&#1073;&#1086;&#1090;&#1082;&#1072;</text></g><!--link BACK_OFFICE to ABS--><g id="link_BACK_OFFICE_ABS"><path d="M1540.58,351.7173 C1540.34,361.4873 1540.13,371.7273 1540,381.2973 C1539.81,395.9573 1537.86,399.7873 1540,414.2973 C1543.62,438.8673 1549.8509,460.0566 1556.9209,480.1766 " fill="none" id="BACK_OFFICE-to-ABS" style="stroke:#000000;stroke-width:1.0;"/><polygon fill="#000000" points="1558.91,485.8373,1559.7001,476.0202,1557.2524,481.1201,1552.1525,478.6723,1558.91,485.8373" style="stroke:#000000;stroke-width:1.0;"/><text fill="#000000" font-family="Verdana" font-size="13" lengthAdjust="spacing" textLength="80" x="1541" y="395.3671">&#1059;&#1087;&#1088;&#1072;&#1074;&#1083;&#1077;&#1085;&#1080;&#1077;</text><text fill="#000000" font-family="Verdana" font-size="13" lengthAdjust="spacing" textLength="62" x="1550" y="411.1664">&#1089;&#1090;&#1072;&#1074;&#1082;&#1072;&#1084;&#1080;</text></g><!--link CC_OPER to CC_SYS--><g id="link_CC_OPER_CC_SYS"><path d="M2353,351.6873 C2353,392.5173 2353,444.5573 2353,479.9773 " fill="none" id="CC_OPER-to-CC_SYS" style="stroke:#000000;stroke-width:1.0;"/><polygon fill="#000000" points="2353,485.9773,2357,476.9773,2353,480.9773,2349,476.9773,2353,485.9773" style="stroke:#000000;stroke-width:1.0;"/><text fill="#000000" font-family="Verdana" font-size="13" lengthAdjust="spacing" textLength="72" x="2354" y="395.3671">&#1054;&#1073;&#1088;&#1072;&#1073;&#1086;&#1090;&#1082;&#1072;</text><text fill="#000000" font-family="Verdana" font-size="13" lengthAdjust="spacing" textLength="47" x="2366.5" y="411.1664">&#1079;&#1072;&#1103;&#1074;&#1086;&#1082;</text></g><!--link SITE to API_GW--><g id="link_SITE_API_GW"><path d="M298.38,335.9573 C293.86,349.6573 289.24,366.0673 287,381.2973 C281.76,416.9373 283.2841,452.4022 285.8141,480.0922 " fill="none" id="SITE-to-API_GW" style="stroke:#000000;stroke-width:1.0;"/><polygon fill="#000000" points="286.36,486.0673,289.5245,476.7407,285.9051,481.088,281.5577,477.4686,286.36,486.0673" style="stroke:#000000;stroke-width:1.0;"/><text fill="#000000" font-family="Verdana" font-size="13" lengthAdjust="spacing" textLength="73" x="288" y="403.3671">HTTPS/TLS</text></g><!--link IB to API_GW--><g id="link_IB_API_GW"><path d="M139.75,336.2773 C156.56,358.3573 179.8,388.4173 201,414.2973 C221.07,438.7973 240.5489,461.3707 258.3389,481.6107 " fill="none" id="IB-to-API_GW" style="stroke:#000000;stroke-width:1.0;"/><polygon fill="#000000" points="262.3,486.1173,259.3628,476.7166,258.9991,482.3618,253.3539,481.9981,262.3,486.1173" style="stroke:#000000;stroke-width:1.0;"/><text fill="#000000" font-family="Verdana" font-size="13" lengthAdjust="spacing" textLength="73" x="202" y="403.3671">HTTPS/TLS</text></g><!--link API_GW to DEPOSIT_SVC--><g id="link_API_GW_DEPOSIT_SVC"><path d="M311.75,485.8873 C337.39,449.8373 379.34,394.0473 402,381.2973 C476.63,339.3073 712.003,318.5522 842.083,309.9722 " fill="none" id="API_GW-to-DEPOSIT_SVC" style="stroke:#000000;stroke-width:1.0;"/><polygon fill="#000000" points="848.07,309.5773,838.8262,306.1783,843.0808,309.9064,839.3528,314.161,848.07,309.5773" style="stroke:#000000;stroke-width:1.0;"/><text fill="#000000" font-family="Verdana" font-size="13" lengthAdjust="spacing" textLength="34" x="403" y="403.3671">REST</text></g><!--link API_GW to CREDIT_SVC--><g id="link_API_GW_CREDIT_SVC"><path d="M308.66,486.1873 C323.48,464.4373 346.3,436.7873 374,422.2973 C400.96,408.1873 414.01,426.2473 442,414.2973 C463.2,405.2473 460.47,389.5073 482,381.2973 C596.91,337.4773 916.65,393.2173 1035,359.7973 C1053.21,354.6573 1066.5283,348.5493 1082.4583,339.1793 " fill="none" id="API_GW-to-CREDIT_SVC" style="stroke:#000000;stroke-width:1.0;"/><polygon fill="#000000" points="1087.63,336.1373,1077.8445,337.2525,1083.3203,338.6723,1081.9005,344.1481,1087.63,336.1373" style="stroke:#000000;stroke-width:1.0;"/><text fill="#000000" font-family="Verdana" font-size="13" lengthAdjust="spacing" textLength="34" x="483" y="403.3671">REST</text></g><!--link API_GW to CACHE--><g id="link_API_GW_CACHE"><path d="M319.22,550.7773 C350.46,584.3973 395.5967,633.0011 426.7867,666.5811 " fill="none" id="API_GW-to-CACHE" style="stroke:#000000;stroke-width:1.0;"/><polygon fill="#000000" points="430.87,670.9773,427.6758,661.6608,427.4672,667.3138,421.8142,667.1052,430.87,670.9773" style="stroke:#000000;stroke-width:1.0;"/><text fill="#000000" font-family="Verdana" font-size="13" lengthAdjust="spacing" textLength="47" x="360.77" y="596.3971">&#1063;&#1090;&#1077;&#1085;&#1080;&#1077;</text></g><!--link DEPOSIT_SVC to RATE_SVC--><g id="link_DEPOSIT_SVC_RATE_SVC"><path d="M937.87,336.1373 C944.11,376.3273 953.9394,439.6484 960.1894,479.8984 " fill="none" id="DEPOSIT_SVC-to-RATE_SVC" style="stroke:#000000;stroke-width:1.0;"/><polygon fill="#000000" points="961.11,485.8273,963.6817,476.3201,960.3428,480.8865,955.7764,477.5476,961.11,485.8273" style="stroke:#000000;stroke-width:1.0;"/><text fill="#000000" font-family="Verdana" font-size="13" lengthAdjust="spacing" textLength="97" x="950.5" y="403.3671">&#1047;&#1072;&#1087;&#1088;&#1086;&#1089; &#1089;&#1090;&#1072;&#1074;&#1086;&#1082;</text></g><!--link DEPOSIT_SVC to QUEUE--><g id="link_DEPOSIT_SVC_QUEUE"><path d="M848.4,313.2873 C751.26,324.4973 599.45,346.9373 554,381.2973 C519.79,407.1573 502.5802,448.7732 493.2902,480.2132 " fill="none" id="DEPOSIT_SVC-to-QUEUE" style="stroke:#000000;stroke-width:1.0;"/><polygon fill="#000000" points="491.59,485.9673,497.9764,478.4697,493.0069,481.1723,490.3043,476.2027,491.59,485.9673" style="stroke:#000000;stroke-width:1.0;"/><text fill="#000000" font-family="Verdana" font-size="13" lengthAdjust="spacing" textLength="109" x="555" y="403.3671">&#1057;&#1086;&#1073;&#1099;&#1090;&#1080;&#1077; &#1079;&#1072;&#1103;&#1074;&#1082;&#1080;</text></g><!--link CREDIT_SVC to SCORING--><g id="link_CREDIT_SVC_SCORING"><path d="M1178.87,336.1373 C1194.97,345.5073 1213.63,354.6573 1232,359.7973 C1351.29,393.1773 1671.23,342.8973 1789,381.2973 C1851.73,401.7473 1906.4003,448.3819 1940.2303,481.7819 " fill="none" id="CREDIT_SVC-to-SCORING" style="stroke:#000000;stroke-width:1.0;"/><polygon fill="#000000" points="1944.5,485.9973,1940.9057,476.8277,1940.9419,482.4845,1935.2852,482.5206,1944.5,485.9973" style="stroke:#000000;stroke-width:1.0;"/><text fill="#000000" font-family="Verdana" font-size="13" lengthAdjust="spacing" textLength="61" x="1857.2" y="403.3671">REST API</text></g><!--link CREDIT_SVC to QUEUE--><g id="link_CREDIT_SVC_QUEUE"><path d="M1087.05,336.1473 C1071.23,345.4073 1052.96,354.4673 1035,359.7973 C964.54,380.6873 772.59,352.4373 705,381.2973 C685.04,389.8173 688.79,405.3773 669,414.2973 C638.03,428.2473 624.14,408.7273 593,422.2973 C560.32,436.5373 534.4361,459.8044 514.2261,481.6344 " fill="none" id="CREDIT_SVC-to-QUEUE" style="stroke:#000000;stroke-width:1.0;"/><polygon fill="#000000" points="510.15,486.0373,519.1994,482.1504,513.5468,482.3683,513.3289,476.7156,510.15,486.0373" style="stroke:#000000;stroke-width:1.0;"/><text fill="#000000" font-family="Verdana" font-size="13" lengthAdjust="spacing" textLength="109" x="706" y="403.3671">&#1057;&#1086;&#1073;&#1099;&#1090;&#1080;&#1077; &#1079;&#1072;&#1103;&#1074;&#1082;&#1080;</text></g><!--link RATE_SVC to ABS_DB--><g id="link_RATE_SVC_ABS_DB"><path d="M1038.32,541.9373 C1160.6,580.1973 1399.0038,654.7856 1499.9638,686.3756 " fill="none" id="RATE_SVC-to-ABS_DB" style="stroke:#000000;stroke-width:1.0;"/><polygon fill="#000000" points="1505.69,688.1673,1498.2951,681.6622,1500.9181,686.6742,1495.9062,689.2972,1505.69,688.1673" style="stroke:#000000;stroke-width:1.0;"/><text fill="#000000" font-family="Verdana" font-size="13" lengthAdjust="spacing" textLength="99" x="1207.1" y="596.3971">&#1063;&#1090;&#1077;&#1085;&#1080;&#1077;/&#1047;&#1072;&#1087;&#1080;&#1089;&#1100;</text></g><!--link NOTIFY_SVC to QUEUE--><g id="link_NOTIFY_SVC_QUEUE"><path d="M1291.5,336.1673 C1273.22,345.4273 1252.26,354.4873 1232,359.7973 C1076.52,400.5373 1023.73,331.2073 871,381.2973 C845.35,389.7073 845.75,406.1973 820,414.2973 C771.85,429.4473 639.95,403.7573 593,422.2973 C559.61,435.4773 533.5287,459.1319 513.4687,481.3719 " fill="none" id="NOTIFY_SVC-to-QUEUE" style="stroke:#000000;stroke-width:1.0;"/><polygon fill="#000000" points="509.45,485.8273,518.4482,481.8233,512.7989,482.1145,512.5077,476.4651,509.45,485.8273" style="stroke:#000000;stroke-width:1.0;"/><text fill="#000000" font-family="Verdana" font-size="13" lengthAdjust="spacing" textLength="65" x="872" y="403.3671">&#1055;&#1086;&#1076;&#1087;&#1080;&#1089;&#1082;&#1072;</text></g><!--link NOTIFY_SVC to SMS--><g id="link_NOTIFY_SVC_SMS"><path d="M1412.96,336.2873 C1435.98,345.5473 1462.16,354.5873 1487,359.7973 C1701.66,404.7873 1766.14,332.6573 1980,381.2973 C2025.24,391.5873 2039.06,394.2273 2076,422.2973 C2102.4,442.3673 2121.7734,468.5051 2135.3034,489.6251 " fill="none" id="NOTIFY_SVC-to-SMS" style="stroke:#000000;stroke-width:1.0;"/><polygon fill="#000000" points="2138.54,494.6773,2137.0533,484.9413,2135.8429,490.4671,2130.317,489.2567,2138.54,494.6773" style="stroke:#000000;stroke-width:1.0;"/><text fill="#000000" font-family="Verdana" font-size="13" lengthAdjust="spacing" textLength="98" x="2064.61" y="403.3671">&#1054;&#1090;&#1087;&#1088;&#1072;&#1074;&#1082;&#1072; &#1057;&#1052;&#1057;</text></g><!--link CC_SYS to QUEUE--><g id="link_CC_SYS_QUEUE"><path d="M2323.34,486.1873 C2300.15,463.5673 2265.77,435.1073 2229,422.2973 C2115.57,382.7773 1808.62,416.7473 1688.5,416.0473 C1566.78,415.3473 706.75,378.9473 593,422.2973 C559.3,435.1373 533.211,459.0894 513.241,481.7094 " fill="none" id="CC_SYS-to-QUEUE" style="stroke:#000000;stroke-width:1.0;"/><polygon fill="#000000" points="509.27,486.2073,518.2251,482.1077,512.5791,482.459,512.2279,476.8131,509.27,486.2073" style="stroke:#000000;stroke-width:1.0;"/><text fill="#000000" font-family="Verdana" font-size="13" lengthAdjust="spacing" textLength="57" x="1630.5" y="403.3671">&#1057;&#1086;&#1073;&#1099;&#1090;&#1080;&#1103;</text></g><!--link ABS to ABS_DB--><g id="link_ABS_ABS_DB"><path d="M1567.56,550.7773 C1563.87,584.6073 1558.6824,632.0729 1555.0124,665.6229 " fill="none" id="ABS-to-ABS_DB" style="stroke:#000000;stroke-width:1.0;"/><polygon fill="#000000" points="1554.36,671.5873,1559.3149,663.0756,1554.9037,666.617,1551.3624,662.2057,1554.36,671.5873" style="stroke:#000000;stroke-width:1.0;"/><text fill="#000000" font-family="Verdana" font-size="13" lengthAdjust="spacing" textLength="46" x="1564.96" y="596.3971">&#1056;&#1072;&#1073;&#1086;&#1090;&#1072;</text></g><!--link PIPELINE to PIPELINE_DB--><g id="link_PIPELINE_PIPELINE_DB"><path d="M1748,735.8273 C1752.93,755.1873 1755.86,780.0873 1747,800.3573 C1738.25,820.3773 1726.4984,833.8492 1710.2184,847.2792 " fill="none" id="PIPELINE-to-PIPELINE_DB" style="stroke:#000000;stroke-width:1.0;"/><polygon fill="#000000" points="1705.59,851.0973,1715.078,848.4557,1709.447,847.9155,1709.9871,842.2845,1705.59,851.0973" style="stroke:#000000;stroke-width:1.0;"/><text fill="#000000" font-family="Verdana" font-size="13" lengthAdjust="spacing" textLength="46" x="1753.7" y="789.4271">&#1056;&#1072;&#1073;&#1086;&#1090;&#1072;</text></g><!--link SCORING to BKI--><g id="link_SCORING_BKI"><path d="M1986.89,550.7773 C2000.67,584.3973 2020.115,631.8453 2033.875,665.4253 " fill="none" id="SCORING-to-BKI" style="stroke:#000000;stroke-width:1.0;"/><polygon fill="#000000" points="2036.15,670.9773,2036.4388,661.1327,2034.2542,666.3507,2029.0362,664.166,2036.15,670.9773" style="stroke:#000000;stroke-width:1.0;"/><text fill="#000000" font-family="Verdana" font-size="13" lengthAdjust="spacing" textLength="61" x="2005.78" y="596.3971">REST API</text></g><!--link ABS_DB to PIPELINE_DB--><g id="link_ABS_DB_PIPELINE_DB"><path d="M1591.4,735.0273 C1601.82,744.4873 1612.27,755.5473 1620,767.3573 C1636.89,793.1573 1645.8619,821.2101 1651.6119,845.3901 " fill="none" id="ABS_DB-to-PIPELINE_DB" style="stroke:#000000;stroke-width:1.0;stroke-dasharray:7.0,7.0;"/><polygon fill="#000000" points="1653,851.2273,1654.8093,841.5461,1651.8433,846.363,1647.0264,843.3969,1653,851.2273" style="stroke:#000000;stroke-width:1.0;"/><text fill="#000000" font-family="Verdana" font-size="13" lengthAdjust="spacing" textLength="37" x="1661.65" y="781.4271">Batch</text><text fill="#000000" font-family="Verdana" font-size="13" lengthAdjust="spacing" textLength="85" x="1637.65" y="797.2264">(1 &#1088;&#1072;&#1079;/&#1076;&#1077;&#1085;&#1100;)</text></g><!--link PIPELINE_DB to ABS_DB--><g id="link_PIPELINE_DB_ABS_DB"><path d="M1608.22,865.2873 C1578.23,852.6473 1542.75,831.9073 1525,800.3573 C1513.65,780.1873 1518.6103,760.1856 1528.4803,740.5956 " fill="none" id="PIPELINE_DB-to-ABS_DB" style="stroke:#000000;stroke-width:1.0;stroke-dasharray:7.0,7.0;"/><polygon fill="#000000" points="1531.18,735.2373,1523.5583,741.475,1528.9303,739.7026,1530.7027,745.0746,1531.18,735.2373" style="stroke:#000000;stroke-width:1.0;"/><text fill="#000000" font-family="Verdana" font-size="13" lengthAdjust="spacing" textLength="37" x="1550" y="781.4271">Batch</text><text fill="#000000" font-family="Verdana" font-size="13" lengthAdjust="spacing" textLength="85" x="1526" y="797.2264">(1 &#1088;&#1072;&#1079;/&#1076;&#1077;&#1085;&#1100;)</text></g><!--link RATE_SVC to CACHE--><g id="link_RATE_SVC_CACHE"><path d="M893.5,545.5373 C801.96,578.6473 650.2622,633.5164 552.4222,668.9064 " fill="none" id="RATE_SVC-to-CACHE" style="stroke:#000000;stroke-width:1.0;"/><polygon fill="#000000" points="546.78,670.9473,556.6039,671.6475,551.4819,669.2466,553.8828,664.1245,546.78,670.9473" style="stroke:#000000;stroke-width:1.0;"/><text fill="#000000" font-family="Verdana" font-size="13" lengthAdjust="spacing" textLength="82" x="788.89" y="596.3971">&#1054;&#1073;&#1085;&#1086;&#1074;&#1083;&#1077;&#1085;&#1080;&#1077;</text></g><!--SRC=[ZLVTJXjN4BxVfvZ2HG49JDM69bnKijUxu0B6iPr6KQciWzcOBMRNsbtIe2eI8KcR21AQgbAhA4rBUz5RuyR5cE2ymjbNw9DqvfpzDP1KlZ4-Cz-Pds- -ENpWhHkR1hIQpBGKp_IQ1l0V_1t_4U_vkxpB-_wk_y3VuMrO-g84ay1_mX_VyW4_9WD_3tWF-0iqwFBNyXV5tJ2j5dFO9goo-aR3iRUiDTLksWwCwXfz5EL3qEvwXcEn9jnm3STLMDt3yn7-Ao9t_3r-0hpFJtaFOS_ytH5WBXIrcpLriQ0Lgv7r8ORsX7Vz-nXg1xy_mxzw_6J5EkSyvFYIZaJ8_w3x3ZeC4E8r_d8gJdh-WN3BbRD5TRwsD5T-X-kH_vJt9n7X8VhTvstfcLKNQikwNb2roFKL5gvBjSIx1iArZ-cUJlhVoKZfI4QhrfPBMfdgf3ksvHdM6YooRSDHMbXHrZ1W9Ftx28ngC_h7kWxVAW1VyaFUvYV-Bl0Z_7A6rxHNhB7IV2bJDZ2OgQ_TyQ_edagXgi7ejMbDkpOj_7wXC4ICcAA_EndwetUsKfegQbMaWGgVJ5sH08LSv7wFeisM2Z37FECRjWqPA6243OTvfcqDXt_k2CQml-EOXwvhCzgCp2C1Xn5O3TEwcrcmhOQy74zhSpV9OoOtanFnl_2V-ey1c_2MQiaxMERlgPsYq1t4A1jhPf2ycbNdDVBENfcMsRz2uwwaihzFA0Fy71731CO9-RFLLTDRkfvPOBSts8H4kdv3kv54icpF0CTih7jWtmvEPs52k012jK4IWUAK8uReoDyLAuG7fDUfVq0p9mkRst9Dot1TMBGRPdsucj5fnN3kc7N3fJfE8oDYFb1U7U8d29f74npK1OkFm_qvkyCowgZCAg-Lbf4WjGesV3IVpqxdy-Un-l7aNuwabhNyUu3428k62R994Dv1BUBF-Q64AMUhshj17k0NYcR0tuI3BBeMnoIHYilLWduhXNLFYfBfUgRLWCgswncRRbnXrNOCo35h8t4gXquFoIf3nTloHhErRcQM7LPl6W5LSnKSbAjwxjfLD5rZ7bjbBi9A6yZdq2r8TIImh-Lnjl8VqoUWTbpfir0X1vWYfNmYfMXCPPiejYmJfregbBJ5Gb5x__KlqcWoaD0z6GsMAgfBPQlLiXqlKH8Tnq3DHxphYSvsiI5jk43kn4YY98c8CoNRzHgEKRc-6117hLLkLGWp_samesb4dA0-IIds-Op_BLLksrkthOpUPEv6e7BgShbGd1k2USaF9_t7E6NF-B4qMuflkfTQKI4RwarxQmrr_4UXZey5lReKGnIIloScZpv11PxZKjhXW_IaOF_yHoZ_qa_6VoA2o2qKf0IggWo2rYEOg9ROAb9BLudt84nEVYOrV1RupxXM3h1zgFLAuXWLUkWmtcd2WAY95gzGw4WoZyGc57Rn1aiQ_XbfQpXXtHKh6bzqnCRqb6232SUWYnTTWZKu3aB3mK_jEyzERXD5f2d2aAe_2_FLQgcIgIvM5CpnafEXbOIOeK8gWJKv9fLk5ifQfPeyJQZN1OTYYM1gVma2Y7BGhU4rwTObBoBlID5aYqHb1qDgUCuft2V8OTfEUs9xT24gP9_A7ySiE19CW8oVIZ9iyNz0esW3Df0cf3FFo2m4h_ULXCgchlWDhtWjhGJHXkne3eah21iohK_Y8KOsfT9c_8XmbO1bboNZ7oX4u7JelqTSR2kHK999KlQ6xC9QaXbDQwAcjAUPLr-7bcDZxrrYcRnhQceOKnYYN7q48iVZZ5ZBP_x-k98q9CSetdVuuDKggwyRiDL2USUBKysAM8e3Y9qQ98TNKSHpPTNsF7iJ9MjY0ZS1gYAzXSHJ75dGGnwy2Twzud5C3vFPYGaq_tVdZzI81GyNGPmduRy8OhC15H2efyYeDwI0mYeaFKKLuCbd73hlY53RiT1U-Ao3CP9MT0Wo0Wc9gPvAJGv_e3GwWdpoVvjJVv-g8QQjDnvU_hvNO9HYcvGVo_z8W9-9mkBfO4ZaUY7mImeuI3Pwj51q0Pvi367u3_4fWyzkt9Gz0TrEnneYNlQ2YbzE-8qw9_SCJaxTQ2gahjHpvJy0]--></g></svg>