<?xml version="1.0" encoding="us-ascii" standalone="no"?><svg xmlns="http://www.w3.org/2000/svg" xmlns:xlink="http://www.w3.org/1999/xlink" contentStyleType="text/css" height="491px" preserveAspectRatio="none" style="width:2918px;height:491px;background:#FEFEFE;" version="1.1" viewBox="0 0 2918 491" width="2918px" zoomAndPan="magnify"><defs/><g><rect fill="#FEFEFE" height="491" style="stroke:none;stroke-width:1.0;" width="2918" x="0" y="0"/><text fill="#000000" font-family="Verdana" font-size="22" font-weight="bold" lengthAdjust="spacing" textLength="801" x="1054" y="37.1182">&#1042;&#1083;&#1080;&#1103;&#1085;&#1080;&#1077; &#1085;&#1077;&#1092;&#1091;&#1085;&#1082;&#1094;&#1080;&#1086;&#1085;&#1072;&#1083;&#1100;&#1085;&#1099;&#1093; &#1090;&#1088;&#1077;&#1073;&#1086;&#1074;&#1072;&#1085;&#1080;&#1081; &#1085;&#1072; &#1072;&#1088;&#1093;&#1080;&#1090;&#1077;&#1082;&#1090;&#1091;&#1088;&#1091; MVP</text><!--cluster ?????????? (Reliability)--><g id="cluster_&#1053;&#1072;&#1076;&#1077;&#1078;&#1085;&#1086;&#1089;&#1090;&#1100; (Reliability)"><path d="M13.5,58.7373 L212.5,58.7373 A3.75,3.75 0 0 1 215,61.2373 L222,81.752 L639.5,81.752 A2.5,2.5 0 0 1 642,84.252 L642,162.2673 A2.5,2.5 0 0 1 639.5,164.7673 L13.5,164.7673 A2.5,2.5 0 0 1 11,162.2673 L11,61.2373 A2.5,2.5 0 0 1 13.5,58.7373 " fill="#FFE6E6" style="stroke:#000000;stroke-width:1.0;"/><line style="stroke:#000000;stroke-width:1.0;" x1="11" x2="222" y1="81.752" y2="81.752"/><text fill="#000000" font-family="Verdana" font-size="14" font-weight="bold" lengthAdjust="spacing" textLength="198" x="15" y="74.8125">&#1053;&#1072;&#1076;&#1077;&#1078;&#1085;&#1086;&#1089;&#1090;&#1100; (Reliability)</text></g><!--cluster ?????????????????? (Performance)--><g id="cluster_&#1055;&#1088;&#1086;&#1080;&#1079;&#1074;&#1086;&#1076;&#1080;&#1090;&#1077;&#1083;&#1100;&#1085;&#1086;&#1089;&#1090;&#1100; (Performance)"><path d="M668.5,58.7373 L958.5,58.7373 A3.75,3.75 0 0 1 961,61.2373 L968,81.752 L1366.5,81.752 A2.5,2.5 0 0 1 1369,84.252 L1369,162.2673 A2.5,2.5 0 0 1 1366.5,164.7673 L668.5,164.7673 A2.5,2.5 0 0 1 666,162.2673 L666,61.2373 A2.5,2.5 0 0 1 668.5,58.7373 " fill="#E6FFE6" style="stroke:#000000;stroke-width:1.0;"/><line style="stroke:#000000;stroke-width:1.0;" x1="666" x2="968" y1="81.752" y2="81.752"/><text fill="#000000" font-family="Verdana" font-size="14" font-weight="bold" lengthAdjust="spacing" textLength="289" x="670" y="74.8125">&#1055;&#1088;&#1086;&#1080;&#1079;&#1074;&#1086;&#1076;&#1080;&#1090;&#1077;&#1083;&#1100;&#1085;&#1086;&#1089;&#1090;&#1100; (Performance)</text></g><!--cluster ??????????? (Restrictions)--><g id="cluster_&#1054;&#1075;&#1088;&#1072;&#1085;&#1080;&#1095;&#1077;&#1085;&#1080;&#1103; (Restrictions)"><path d="M1395.5,58.7373 L1617.5,58.7373 A3.75,3.75 0 0 1 1620,61.2373 L1627,81.752 L2113.5,81.752 A2.5,2.5 0 0 1 2116,84.252 L2116,162.2673 A2.5,2.5 0 0 1 2113.5,164.7673 L1395.5,164.7673 A2.5,2.5 0 0 1 1393,162.2673 L1393,61.2373 A2.5,2.5 0 0 1 1395.5,58.7373 " fill="#FFE6FF" style="stroke:#000000;stroke-width:1.0;"/><line style="stroke:#000000;stroke-width:1.0;" x1="1393" x2="1627" y1="81.752" y2="81.752"/><text fill="#000000" font-family="Verdana" font-size="14" font-weight="bold" lengthAdjust="spacing" textLength="221" x="1397" y="74.8125">&#1054;&#1075;&#1088;&#1072;&#1085;&#1080;&#1095;&#1077;&#1085;&#1080;&#1103; (Restrictions)</text></g><!--cluster ???????????? (Security)--><g id="cluster_&#1041;&#1077;&#1079;&#1086;&#1087;&#1072;&#1089;&#1085;&#1086;&#1089;&#1090;&#1100; (Security)"><path d="M2142.5,58.7373 L2337.5,58.7373 A3.75,3.75 0 0 1 2340,61.2373 L2347,81.752 L2633.5,81.752 A2.5,2.5 0 0 1 2636,84.252 L2636,162.2673 A2.5,2.5 0 0 1 2633.5,164.7673 L2142.5,164.7673 A2.5,2.5 0 0 1 2140,162.2673 L2140,61.2373 A2.5,2.5 0 0 1 2142.5,58.7373 " fill="#FFFACD" style="stroke:#000000;stroke-width:1.0;"/><line style="stroke:#000000;stroke-width:1.0;" x1="2140" x2="2347" y1="81.752" y2="81.752"/><text fill="#000000" font-family="Verdana" font-size="14" font-weight="bold" lengthAdjust="spacing" textLength="194" x="2144" y="74.8125">&#1041;&#1077;&#1079;&#1086;&#1087;&#1072;&#1089;&#1085;&#1086;&#1089;&#1090;&#1100; (Security)</text></g><!--cluster ????????????? ???????--><g id="cluster_&#1040;&#1088;&#1093;&#1080;&#1090;&#1077;&#1082;&#1090;&#1091;&#1088;&#1085;&#1099;&#1077; &#1088;&#1077;&#1096;&#1077;&#1085;&#1080;&#1103;"><path d="M555.5,213.7673 L756.5,213.7673 A3.75,3.75 0 0 1 759,216.2673 L766,236.782 L1975.5,236.782 A2.5,2.5 0 0 1 1978,239.282 L1978,327.2973 A2.5,2.5 0 0 1 1975.5,329.7973 L555.5,329.7973 A2.5,2.5 0 0 1 553,327.2973 L553,216.2673 A2.5,2.5 0 0 1 555.5,213.7673 " fill="#E6F3FF" style="stroke:#000000;stroke-width:1.0;"/><line style="stroke:#000000;stroke-width:1.0;" x1="553" x2="766" y1="236.782" y2="236.782"/><text fill="#000000" font-family="Verdana" font-size="14" font-weight="bold" lengthAdjust="spacing" textLength="200" x="557" y="229.8425">&#1040;&#1088;&#1093;&#1080;&#1090;&#1077;&#1082;&#1090;&#1091;&#1088;&#1085;&#1099;&#1077; &#1088;&#1077;&#1096;&#1077;&#1085;&#1080;&#1103;</text></g><!--entity R1--><g id="elem_R1"><rect fill="#FF9999" height="54.0293" rx="2.5" ry="2.5" style="stroke:#000000;stroke-width:1.0;" width="108" x="27" y="94.7373"/><text fill="#000000" font-family="Verdana" font-size="14" lengthAdjust="spacing" textLength="80" x="37" y="118.8125">SLA 99.9%</text><text fill="#000000" font-family="Verdana" font-size="14" lengthAdjust="spacing" textLength="88" x="37" y="135.8271">&#1076;&#1086;&#1089;&#1090;&#1091;&#1087;&#1085;&#1086;&#1089;&#1090;&#1080;</text></g><!--entity R2--><g id="elem_R2"><rect fill="#FF9999" height="37.0146" rx="2.5" ry="2.5" style="stroke:#000000;stroke-width:1.0;" width="106" x="363" y="103.2473"/><text fill="#000000" font-family="Verdana" font-size="14" lengthAdjust="spacing" textLength="86" x="373" y="127.3225">&#1056;&#1072;&#1073;&#1086;&#1090;&#1072; 24/7</text></g><!--entity R3--><g id="elem_R3"><rect fill="#FF9999" height="54.0293" rx="2.5" ry="2.5" style="stroke:#000000;stroke-width:1.0;" width="157" x="170.5" y="94.7373"/><text fill="#000000" font-family="Verdana" font-size="14" lengthAdjust="spacing" textLength="107" x="180.5" y="118.8125">&#1055;&#1077;&#1088;&#1077;&#1082;&#1083;&#1102;&#1095;&#1077;&#1085;&#1080;&#1077;</text><text fill="#000000" font-family="Verdana" font-size="14" lengthAdjust="spacing" textLength="137" x="180.5" y="135.8271">&#1085;&#1072; &#1088;&#1077;&#1079;&#1077;&#1088;&#1074;&#1085;&#1099;&#1081; &#1062;&#1054;&#1044;</text></g><!--entity R4--><g id="elem_R4"><rect fill="#FF9999" height="54.0293" rx="2.5" ry="2.5" style="stroke:#000000;stroke-width:1.0;" width="121" x="504.5" y="94.7373"/><text fill="#000000" font-family="Verdana" font-size="14" lengthAdjust="spacing" textLength="88" x="514.5" y="118.8125">RTO &lt; 1 &#1095;&#1072;&#1089;</text><text fill="#000000" font-family="Verdana" font-size="14" lengthAdjust="spacing" textLength="101" x="514.5" y="135.8271">RPO &lt; 15 &#1084;&#1080;&#1085;</text></g><!--entity P1--><g id="elem_P1"><rect fill="#99FF99" height="54.0293" rx="2.5" ry="2.5" style="stroke:#000000;stroke-width:1.0;" width="84" x="865" y="94.7373"/><text fill="#000000" font-family="Verdana" font-size="14" lengthAdjust="spacing" textLength="52" x="875" y="118.8125">&#1054;&#1090;&#1082;&#1083;&#1080;&#1082;</text><text fill="#000000" font-family="Verdana" font-size="14" lengthAdjust="spacing" textLength="64" x="875" y="135.8271">&lt; 100ms</text></g><!--entity P2--><g id="elem_P2"><rect fill="#99FF99" height="54.0293" rx="2.5" ry="2.5" style="stroke:#000000;stroke-width:1.0;" width="147" x="682.5" y="94.7373"/><text fill="#000000" font-family="Verdana" font-size="14" lengthAdjust="spacing" textLength="127" x="692.5" y="118.8125">&#1047;&#1072;&#1075;&#1088;&#1091;&#1079;&#1082;&#1072; &#1089;&#1090;&#1088;&#1072;&#1085;&#1080;&#1094;</text><text fill="#000000" font-family="Verdana" font-size="14" lengthAdjust="spacing" textLength="53" x="692.5" y="135.8271">&lt; 2 &#1089;&#1077;&#1082;</text></g><!--entity P3--><g id="elem_P3"><rect fill="#99FF99" height="54.0293" rx="2.5" ry="2.5" style="stroke:#000000;stroke-width:1.0;" width="186" x="1167" y="94.7373"/><text fill="#000000" font-family="Verdana" font-size="14" lengthAdjust="spacing" textLength="166" x="1177" y="118.8125">1000+ &#1086;&#1076;&#1085;&#1086;&#1074;&#1088;&#1077;&#1084;&#1077;&#1085;&#1085;&#1099;&#1093;</text><text fill="#000000" font-family="Verdana" font-size="14" lengthAdjust="spacing" textLength="106" x="1177" y="135.8271">&#1087;&#1086;&#1083;&#1100;&#1079;&#1086;&#1074;&#1072;&#1090;&#1077;&#1083;&#1077;&#1081;</text></g><!--entity P4--><g id="elem_P4"><rect fill="#99FF99" height="54.0293" rx="2.5" ry="2.5" style="stroke:#000000;stroke-width:1.0;" width="149" x="983.5" y="94.7373"/><text fill="#000000" font-family="Verdana" font-size="14" lengthAdjust="spacing" textLength="129" x="993.5" y="118.8125">&#1054;&#1073;&#1088;&#1072;&#1073;&#1086;&#1090;&#1082;&#1072; &#1079;&#1072;&#1103;&#1074;&#1086;&#1082;</text><text fill="#000000" font-family="Verdana" font-size="14" lengthAdjust="spacing" textLength="98" x="993.5" y="135.8271">&#1074; &#1090;&#1086;&#1090; &#1078;&#1077; &#1076;&#1077;&#1085;&#1100;</text></g><!--entity C1--><g id="elem_C1"><rect fill="#FF99FF" height="54.0293" rx="2.5" ry="2.5" style="stroke:#000000;stroke-width:1.0;" width="128" x="1409" y="94.7373"/><text fill="#000000" font-family="Verdana" font-size="14" lengthAdjust="spacing" textLength="99" x="1419" y="118.8125">&#1053;&#1077; &#1085;&#1072;&#1075;&#1088;&#1091;&#1078;&#1072;&#1090;&#1100;</text><text fill="#000000" font-family="Verdana" font-size="14" lengthAdjust="spacing" textLength="108" x="1419" y="135.8271">&#1040;&#1041;&#1057; &#1085;&#1072;&#1087;&#1088;&#1103;&#1084;&#1091;&#1102;</text></g><!--entity C2--><g id="elem_C2"><rect fill="#FF99FF" height="54.0293" rx="2.5" ry="2.5" style="stroke:#000000;stroke-width:1.0;" width="126" x="1572" y="94.7373"/><text fill="#000000" font-family="Verdana" font-size="14" lengthAdjust="spacing" textLength="98" x="1582" y="118.8125">&#1048;&#1089;&#1087;&#1086;&#1083;&#1100;&#1079;&#1086;&#1074;&#1072;&#1090;&#1100;</text><text fill="#000000" font-family="Verdana" font-size="14" lengthAdjust="spacing" textLength="106" x="1582" y="135.8271">Oracle/MS SQL</text></g><!--entity C3--><g id="elem_C3"><rect fill="#FF99FF" height="54.0293" rx="2.5" ry="2.5" style="stroke:#000000;stroke-width:1.0;" width="148" x="1952" y="94.7373"/><text fill="#000000" font-family="Verdana" font-size="14" lengthAdjust="spacing" textLength="128" x="1962" y="118.8125">Batch &#1080;&#1085;&#1090;&#1077;&#1075;&#1088;&#1072;&#1094;&#1080;&#1103;</text><text fill="#000000" font-family="Verdana" font-size="14" lengthAdjust="spacing" textLength="78" x="1962" y="135.8271">1 &#1088;&#1072;&#1079;/&#1076;&#1077;&#1085;&#1100;</text></g><!--entity C4--><g id="elem_C4"><rect fill="#FF99FF" height="54.0293" rx="2.5" ry="2.5" style="stroke:#000000;stroke-width:1.0;" width="184" x="1733" y="94.7373"/><text fill="#000000" font-family="Verdana" font-size="14" lengthAdjust="spacing" textLength="101" x="1743" y="118.8125">&#1042;&#1077;&#1088;&#1090;&#1080;&#1082;&#1072;&#1083;&#1100;&#1085;&#1086;&#1077;</text><text fill="#000000" font-family="Verdana" font-size="14" lengthAdjust="spacing" textLength="164" x="1743" y="135.8271">&#1084;&#1072;&#1089;&#1096;&#1090;&#1072;&#1073;&#1080;&#1088;&#1086;&#1074;&#1072;&#1085;&#1080;&#1077; &#1040;&#1041;&#1057;</text></g><!--entity S1--><g id="elem_S1"><rect fill="#FFD700" height="54.0293" rx="2.5" ry="2.5" style="stroke:#000000;stroke-width:1.0;" width="125" x="2290.5" y="94.7373"/><text fill="#000000" font-family="Verdana" font-size="14" lengthAdjust="spacing" textLength="94" x="2300.5" y="118.8125">&#1064;&#1080;&#1092;&#1088;&#1086;&#1074;&#1072;&#1085;&#1080;&#1077;</text><text fill="#000000" font-family="Verdana" font-size="14" lengthAdjust="spacing" textLength="105" x="2300.5" y="135.8271">&#1090;&#1088;&#1072;&#1092;&#1080;&#1082;&#1072; (TLS)</text></g><!--entity S2--><g id="elem_S2"><rect fill="#FFD700" height="54.0293" rx="2.5" ry="2.5" style="stroke:#000000;stroke-width:1.0;" width="170" x="2450" y="94.7373"/><text fill="#000000" font-family="Verdana" font-size="14" lengthAdjust="spacing" textLength="150" x="2460" y="118.8125">&#1057;&#1052;&#1057;-&#1087;&#1086;&#1076;&#1090;&#1074;&#1077;&#1088;&#1078;&#1076;&#1077;&#1085;&#1080;&#1077;</text><text fill="#000000" font-family="Verdana" font-size="14" lengthAdjust="spacing" textLength="69" x="2460" y="135.8271">&#1086;&#1087;&#1077;&#1088;&#1072;&#1094;&#1080;&#1081;</text></g><!--entity S3--><g id="elem_S3"><rect fill="#FFD700" height="54.0293" rx="2.5" ry="2.5" style="stroke:#000000;stroke-width:1.0;" width="99" x="2156.5" y="94.7373"/><text fill="#000000" font-family="Verdana" font-size="14" lengthAdjust="spacing" textLength="79" x="2166.5" y="118.8125">&#1040;&#1091;&#1076;&#1080;&#1090; &#1074;&#1089;&#1077;&#1093;</text><text fill="#000000" font-family="Verdana" font-size="14" lengthAdjust="spacing" textLength="69" x="2166.5" y="135.8271">&#1086;&#1087;&#1077;&#1088;&#1072;&#1094;&#1080;&#1081;</text></g><!--entity APIGW--><g id="elem_APIGW"><rect fill="#87CEEB" height="64.0293" rx="2.5" ry="2.5" style="stroke:#000000;stroke-width:1.0;" width="154" x="1478" y="249.7673"/><rect fill="#87CEEB" height="10" style="stroke:#000000;stroke-width:1.0;" width="15" x="1612" y="254.7673"/><rect fill="#87CEEB" height="2" style="stroke:#000000;stroke-width:1.0;" width="4" x="1610" y="256.7673"/><rect fill="#87CEEB" height="2" style="stroke:#000000;stroke-width:1.0;" width="4" x="1610" y="260.7673"/><text fill="#000000" font-family="Verdana" font-size="14" lengthAdjust="spacing" textLength="89" x="1493" y="283.8425">API Gateway</text><text fill="#000000" font-family="Verdana" font-size="14" lengthAdjust="spacing" textLength="114" x="1493" y="300.8571">+ Load Balancer</text></g><!--entity CACHE--><g id="elem_CACHE"><rect fill="#87CEEB" height="64.0293" rx="2.5" ry="2.5" style="stroke:#000000;stroke-width:1.0;" width="138" x="933" y="249.7673"/><rect fill="#87CEEB" height="10" style="stroke:#000000;stroke-width:1.0;" width="15" x="1051" y="254.7673"/><rect fill="#87CEEB" height="2" style="stroke:#000000;stroke-width:1.0;" width="4" x="1049" y="256.7673"/><rect fill="#87CEEB" height="2" style="stroke:#000000;stroke-width:1.0;" width="4" x="1049" y="260.7673"/><text fill="#000000" font-family="Verdana" font-size="14" lengthAdjust="spacing" textLength="85" x="948" y="283.8425">Redis Cache</text><text fill="#000000" font-family="Verdana" font-size="14" lengthAdjust="spacing" textLength="98" x="948" y="300.8571">&#1050;&#1101;&#1096;&#1080;&#1088;&#1086;&#1074;&#1072;&#1085;&#1080;&#1077;</text></g><!--entity QUEUE--><g id="elem_QUEUE"><rect fill="#87CEEB" height="64.0293" rx="2.5" ry="2.5" style="stroke:#000000;stroke-width:1.0;" width="154" x="1106" y="249.7673"/><rect fill="#87CEEB" height="10" style="stroke:#000000;stroke-width:1.0;" width="15" x="1240" y="254.7673"/><rect fill="#87CEEB" height="2" style="stroke:#000000;stroke-width:1.0;" width="4" x="1238" y="256.7673"/><rect fill="#87CEEB" height="2" style="stroke:#000000;stroke-width:1.0;" width="4" x="1238" y="260.7673"/><text fill="#000000" font-family="Verdana" font-size="14" lengthAdjust="spacing" textLength="109" x="1121" y="283.8425">Message Queue</text><text fill="#000000" font-family="Verdana" font-size="14" lengthAdjust="spacing" textLength="114" x="1121" y="300.8571">RabbitMQ/Kafka</text></g><!--entity MICRO--><g id="elem_MICRO"><rect fill="#87CEEB" height="64.0293" rx="2.5" ry="2.5" style="stroke:#000000;stroke-width:1.0;" width="145" x="1816.5" y="249.7673"/><rect fill="#87CEEB" height="10" style="stroke:#000000;stroke-width:1.0;" width="15" x="1941.5" y="254.7673"/><rect fill="#87CEEB" height="2" style="stroke:#000000;stroke-width:1.0;" width="4" x="1939.5" y="256.7673"/><rect fill="#87CEEB" height="2" style="stroke:#000000;stroke-width:1.0;" width="4" x="1939.5" y="260.7673"/><text fill="#000000" font-family="Verdana" font-size="14" lengthAdjust="spacing" textLength="105" x="1831.5" y="283.8425">&#1052;&#1080;&#1082;&#1088;&#1086;&#1089;&#1077;&#1088;&#1074;&#1080;&#1089;&#1099;</text><text fill="#000000" font-family="Verdana" font-size="14" lengthAdjust="spacing" textLength="57" x="1831.5" y="300.8571">Java/C#</text></g><!--entity MULTI--><g id="elem_MULTI"><rect fill="#87CEEB" height="64.0293" rx="2.5" ry="2.5" style="stroke:#000000;stroke-width:1.0;" width="149" x="749.5" y="249.7673"/><rect fill="#87CEEB" height="10" style="stroke:#000000;stroke-width:1.0;" width="15" x="878.5" y="254.7673"/><rect fill="#87CEEB" height="2" style="stroke:#000000;stroke-width:1.0;" width="4" x="876.5" y="256.7673"/><rect fill="#87CEEB" height="2" style="stroke:#000000;stroke-width:1.0;" width="4" x="876.5" y="260.7673"/><text fill="#000000" font-family="Verdana" font-size="14" lengthAdjust="spacing" textLength="73" x="764.5" y="283.8425">Multi-&#1062;&#1054;&#1044;</text><text fill="#000000" font-family="Verdana" font-size="14" lengthAdjust="spacing" textLength="109" x="764.5" y="300.8571">&#1088;&#1072;&#1079;&#1074;&#1077;&#1088;&#1090;&#1099;&#1074;&#1072;&#1085;&#1080;&#1077;</text></g><!--entity CB--><g id="elem_CB"><rect fill="#87CEEB" height="64.0293" rx="2.5" ry="2.5" style="stroke:#000000;stroke-width:1.0;" width="145" x="569.5" y="249.7673"/><rect fill="#87CEEB" height="10" style="stroke:#000000;stroke-width:1.0;" width="15" x="694.5" y="254.7673"/><rect fill="#87CEEB" height="2" style="stroke:#000000;stroke-width:1.0;" width="4" x="692.5" y="256.7673"/><rect fill="#87CEEB" height="2" style="stroke:#000000;stroke-width:1.0;" width="4" x="692.5" y="260.7673"/><text fill="#000000" font-family="Verdana" font-size="14" lengthAdjust="spacing" textLength="105" x="584.5" y="283.8425">Circuit Breaker</text><text fill="#000000" font-family="Verdana" font-size="14" lengthAdjust="spacing" textLength="51" x="584.5" y="300.8571">Pattern</text></g><!--entity ES--><g id="elem_ES"><rect fill="#87CEEB" height="64.0293" rx="2.5" ry="2.5" style="stroke:#000000;stroke-width:1.0;" width="147" x="1295.5" y="249.7673"/><rect fill="#87CEEB" height="10" style="stroke:#000000;stroke-width:1.0;" width="15" x="1422.5" y="254.7673"/><rect fill="#87CEEB" height="2" style="stroke:#000000;stroke-width:1.0;" width="4" x="1420.5" y="256.7673"/><rect fill="#87CEEB" height="2" style="stroke:#000000;stroke-width:1.0;" width="4" x="1420.5" y="260.7673"/><text fill="#000000" font-family="Verdana" font-size="14" lengthAdjust="spacing" textLength="107" x="1310.5" y="283.8425">Event Sourcing</text><text fill="#000000" font-family="Verdana" font-size="14" lengthAdjust="spacing" textLength="57" x="1310.5" y="300.8571">+ CQRS</text></g><!--entity MON--><g id="elem_MON"><rect fill="#87CEEB" height="64.0293" rx="2.5" ry="2.5" style="stroke:#000000;stroke-width:1.0;" width="115" x="1666.5" y="249.7673"/><rect fill="#87CEEB" height="10" style="stroke:#000000;stroke-width:1.0;" width="15" x="1761.5" y="254.7673"/><rect fill="#87CEEB" height="2" style="stroke:#000000;stroke-width:1.0;" width="4" x="1759.5" y="256.7673"/><rect fill="#87CEEB" height="2" style="stroke:#000000;stroke-width:1.0;" width="4" x="1759.5" y="260.7673"/><text fill="#000000" font-family="Verdana" font-size="14" lengthAdjust="spacing" textLength="75" x="1681.5" y="283.8425">Monitoring</text><text fill="#000000" font-family="Verdana" font-size="14" lengthAdjust="spacing" textLength="71" x="1681.5" y="300.8571">ELK Stack</text></g><g id="elem_GMN47"><path d="M2304.5,229.3873 L2304.5,334.1832 L2535.5,334.1832 L2535.5,239.3873 L2525.5,229.3873 L2304.5,229.3873 " fill="#FFFFFF" style="stroke:#000000;stroke-width:1.0;"/><path d="M2525.5,229.3873 L2525.5,239.3873 L2535.5,239.3873 L2525.5,229.3873 " fill="#FFFFFF" style="stroke:#000000;stroke-width:1.0;"/><text fill="#000000" font-family="Verdana" font-size="13" font-weight="bold" lengthAdjust="spacing" textLength="210" x="2310.5" y="247.4571">API Gateway &#1086;&#1073;&#1077;&#1089;&#1087;&#1077;&#1095;&#1080;&#1074;&#1072;&#1077;&#1090;:</text><text fill="#000000" font-family="Verdana" font-size="13" lengthAdjust="spacing" textLength="148" x="2310.5" y="263.2564">&#8226; &#1045;&#1076;&#1080;&#1085;&#1072;&#1103; &#1090;&#1086;&#1095;&#1082;&#1072; &#1074;&#1093;&#1086;&#1076;&#1072;</text><text fill="#000000" font-family="Verdana" font-size="13" lengthAdjust="spacing" textLength="174" x="2310.5" y="279.0558">&#8226; &#1041;&#1072;&#1083;&#1072;&#1085;&#1089;&#1080;&#1088;&#1086;&#1074;&#1082;&#1072; &#1085;&#1072;&#1075;&#1088;&#1091;&#1079;&#1082;&#1080;</text><text fill="#000000" font-family="Verdana" font-size="13" lengthAdjust="spacing" textLength="97" x="2310.5" y="294.8551">&#8226; Rate limiting</text><text fill="#000000" font-family="Verdana" font-size="13" lengthAdjust="spacing" textLength="118" x="2310.5" y="310.6544">&#8226; TLS termination</text><text fill="#000000" font-family="Verdana" font-size="13" lengthAdjust="spacing" textLength="124" x="2310.5" y="326.4537">&#8226; &#1040;&#1091;&#1090;&#1077;&#1085;&#1090;&#1080;&#1092;&#1080;&#1082;&#1072;&#1094;&#1080;&#1103;</text></g><g id="elem_GMN50"><path d="M1996.5,245.1873 L1996.5,318.3846 L2269.5,318.3846 L2269.5,255.1873 L2259.5,245.1873 L1996.5,245.1873 " fill="#FFFFFF" style="stroke:#000000;stroke-width:1.0;"/><path d="M2259.5,245.1873 L2259.5,255.1873 L2269.5,255.1873 L2259.5,245.1873 " fill="#FFFFFF" style="stroke:#000000;stroke-width:1.0;"/><text fill="#000000" font-family="Verdana" font-size="13" font-weight="bold" lengthAdjust="spacing" textLength="168" x="2002.5" y="263.2571">&#1050;&#1101;&#1096;&#1080;&#1088;&#1086;&#1074;&#1072;&#1085;&#1080;&#1077; &#1088;&#1077;&#1096;&#1072;&#1077;&#1090;:</text><text fill="#000000" font-family="Verdana" font-size="13" lengthAdjust="spacing" textLength="252" x="2002.5" y="279.0564">&#8226; &#1052;&#1077;&#1076;&#1083;&#1077;&#1085;&#1085;&#1072;&#1103; &#1079;&#1072;&#1075;&#1088;&#1091;&#1079;&#1082;&#1072; &#1089;&#1087;&#1088;&#1072;&#1074;&#1086;&#1095;&#1085;&#1080;&#1082;&#1086;&#1074;</text><text fill="#000000" font-family="Verdana" font-size="13" lengthAdjust="spacing" textLength="198" x="2002.5" y="294.8558">&#8226; &#1057;&#1085;&#1080;&#1078;&#1077;&#1085;&#1080;&#1077; &#1085;&#1072;&#1075;&#1088;&#1091;&#1079;&#1082;&#1080; &#1085;&#1072; &#1040;&#1041;&#1057;</text><text fill="#000000" font-family="Verdana" font-size="13" lengthAdjust="spacing" textLength="186" x="2002.5" y="310.6551">&#8226; &#1041;&#1099;&#1089;&#1090;&#1088;&#1099;&#1081; &#1086;&#1090;&#1082;&#1083;&#1080;&#1082; &lt; 100ms</text></g><g id="elem_GMN53"><path d="M2570.5,237.2873 L2570.5,326.2839 L2809.5,326.2839 L2809.5,247.2873 L2799.5,237.2873 L2570.5,237.2873 " fill="#FFFFFF" style="stroke:#000000;stroke-width:1.0;"/><path d="M2799.5,237.2873 L2799.5,247.2873 L2809.5,247.2873 L2799.5,237.2873 " fill="#FFFFFF" style="stroke:#000000;stroke-width:1.0;"/><text fill="#000000" font-family="Verdana" font-size="13" font-weight="bold" lengthAdjust="spacing" textLength="183" x="2576.5" y="255.3571">&#1054;&#1095;&#1077;&#1088;&#1077;&#1076;&#1080; &#1086;&#1073;&#1077;&#1089;&#1087;&#1077;&#1095;&#1080;&#1074;&#1072;&#1102;&#1090;:</text><text fill="#000000" font-family="Verdana" font-size="13" lengthAdjust="spacing" textLength="175" x="2576.5" y="271.1564">&#8226; &#1040;&#1089;&#1080;&#1085;&#1093;&#1088;&#1086;&#1085;&#1085;&#1072;&#1103; &#1086;&#1073;&#1088;&#1072;&#1073;&#1086;&#1090;&#1082;&#1072;</text><text fill="#000000" font-family="Verdana" font-size="13" lengthAdjust="spacing" textLength="169" x="2576.5" y="286.9558">&#8226; &#1041;&#1091;&#1092;&#1077;&#1088;&#1080;&#1079;&#1072;&#1094;&#1080;&#1103; &#1085;&#1072;&#1075;&#1088;&#1091;&#1079;&#1082;&#1080;</text><text fill="#000000" font-family="Verdana" font-size="13" lengthAdjust="spacing" textLength="195" x="2576.5" y="302.7551">&#8226; &#1043;&#1072;&#1088;&#1072;&#1085;&#1090;&#1080;&#1088;&#1086;&#1074;&#1072;&#1085;&#1085;&#1072;&#1103; &#1076;&#1086;&#1089;&#1090;&#1072;&#1074;&#1082;&#1072;</text><text fill="#000000" font-family="Verdana" font-size="13" lengthAdjust="spacing" textLength="218" x="2576.5" y="318.5544">&#8226; &#1050;&#1086;&#1084;&#1087;&#1077;&#1085;&#1089;&#1072;&#1094;&#1080;&#1103; batch-&#1087;&#1088;&#1086;&#1094;&#1077;&#1089;&#1089;&#1086;&#1074;</text></g><g id="elem_GMN56"><path d="M2469,395.1773 L2469,484.1739 L2911,484.1739 L2911,405.1773 L2901,395.1773 L2469,395.1773 " fill="#FFFFFF" style="stroke:#000000;stroke-width:1.0;"/><path d="M2901,395.1773 L2901,405.1773 L2911,405.1773 L2901,395.1773 " fill="#FFFFFF" style="stroke:#000000;stroke-width:1.0;"/><text fill="#000000" font-family="Verdana" font-size="13" font-weight="bold" lengthAdjust="spacing" textLength="202" x="2475" y="413.2471">&#1050;&#1088;&#1080;&#1090;&#1080;&#1095;&#1077;&#1089;&#1082;&#1080;&#1077; NFR &#1076;&#1083;&#1103; MVP:</text><text fill="#000000" font-family="Verdana" font-size="13" lengthAdjust="spacing" textLength="407" x="2475" y="429.0464">1. SLA 99.9% - &#1086;&#1087;&#1088;&#1077;&#1076;&#1077;&#1083;&#1103;&#1077;&#1090; &#1085;&#1077;&#1086;&#1073;&#1093;&#1086;&#1076;&#1080;&#1084;&#1086;&#1089;&#1090;&#1100; &#1088;&#1077;&#1079;&#1077;&#1088;&#1074;&#1080;&#1088;&#1086;&#1074;&#1072;&#1085;&#1080;&#1103;</text><text fill="#000000" font-family="Verdana" font-size="13" lengthAdjust="spacing" textLength="421" x="2475" y="444.8458">2. &#1047;&#1072;&#1097;&#1080;&#1090;&#1072; &#1040;&#1041;&#1057; &#1086;&#1090; &#1087;&#1077;&#1088;&#1077;&#1075;&#1088;&#1091;&#1079;&#1082;&#1080; - &#1090;&#1088;&#1077;&#1073;&#1091;&#1077;&#1090; &#1087;&#1088;&#1086;&#1084;&#1077;&#1078;&#1091;&#1090;&#1086;&#1095;&#1085;&#1086;&#1075;&#1086; &#1089;&#1083;&#1086;&#1103;</text><text fill="#000000" font-family="Verdana" font-size="13" lengthAdjust="spacing" textLength="384" x="2475" y="460.6451">3. &#1055;&#1088;&#1086;&#1080;&#1079;&#1074;&#1086;&#1076;&#1080;&#1090;&#1077;&#1083;&#1100;&#1085;&#1086;&#1089;&#1090;&#1100; &lt; 100ms - &#1090;&#1088;&#1077;&#1073;&#1091;&#1077;&#1090; &#1082;&#1101;&#1096;&#1080;&#1088;&#1086;&#1074;&#1072;&#1085;&#1080;&#1103;</text><text fill="#000000" font-family="Verdana" font-size="13" lengthAdjust="spacing" textLength="396" x="2475" y="476.4444">4. Batch-&#1086;&#1075;&#1088;&#1072;&#1085;&#1080;&#1095;&#1077;&#1085;&#1080;&#1103; - &#1090;&#1088;&#1077;&#1073;&#1091;&#1102;&#1090; &#1072;&#1083;&#1100;&#1090;&#1077;&#1088;&#1085;&#1072;&#1090;&#1080;&#1074;&#1085;&#1099;&#1093; &#1088;&#1077;&#1096;&#1077;&#1085;&#1080;&#1081;</text></g><!--link R1 to MULTI--><g id="link_R1_MULTI"><path d="M111.22,149.1373 C123.39,158.2573 138.07,167.4973 153,172.7673 C200.06,189.3773 215.72,172.9073 265,180.7673 C295.76,185.6773 302.12,193.6473 333,197.7673 C376.95,203.6273 690.38,190.4773 732,205.7673 C756.37,214.7173 774.74,228.8529 791.48,245.1429 " fill="none" id="R1-to-MULTI" style="stroke:#000000;stroke-width:1.0;"/><polygon fill="#000000" points="795.78,249.3273,792.1196,240.1839,792.1966,245.8403,786.5403,245.9173,795.78,249.3273" style="stroke:#000000;stroke-width:1.0;"/><text fill="#000000" font-family="Verdana" font-size="13" lengthAdjust="spacing" textLength="52" x="334" y="194.8371">&#1090;&#1088;&#1077;&#1073;&#1091;&#1077;&#1090;</text></g><!--link R1 to CB--><g id="link_R1_CB"><path d="M114.44,149.2373 C126.15,157.6173 139.71,166.3473 153,172.7673 C290.99,239.3973 464.7894,264.8845 563.3994,274.6745 " fill="none" id="R1-to-CB" style="stroke:#000000;stroke-width:1.0;"/><polygon fill="#000000" points="569.37,275.2673,560.8092,270.3977,564.3945,274.7733,560.0189,278.3586,569.37,275.2673" style="stroke:#000000;stroke-width:1.0;"/><text fill="#000000" font-family="Verdana" font-size="13" lengthAdjust="spacing" textLength="52" x="203.6" y="194.8371">&#1090;&#1088;&#1077;&#1073;&#1091;&#1077;&#1090;</text></g><!--link R2 to MULTI--><g id="link_R2_MULTI"><path d="M435.89,140.7273 C449.34,151.8373 468.05,165.3373 487,172.7673 C538.14,192.8273 681.59,183.9173 732,205.7673 C755.45,215.9273 773.3991,229.7369 790.1791,245.5169 " fill="none" id="R2-to-MULTI" style="stroke:#000000;stroke-width:1.0;"/><polygon fill="#000000" points="794.55,249.6273,790.7339,240.5478,790.9076,246.202,785.2534,246.3756,794.55,249.6273" style="stroke:#000000;stroke-width:1.0;"/><text fill="#000000" font-family="Verdana" font-size="13" lengthAdjust="spacing" textLength="52" x="702.42" y="194.8371">&#1090;&#1088;&#1077;&#1073;&#1091;&#1077;&#1090;</text></g><!--link R3 to MULTI--><g id="link_R3_MULTI"><path d="M293.12,149.2173 C309.27,157.8973 328.01,166.8273 346,172.7673 C366.95,179.6873 373.61,175.3573 395,180.7673 C417.35,186.4273 421.32,193.6173 444,197.7673 C475.49,203.5273 701.99,194.6173 732,205.7673 C756.34,214.8173 774.7074,228.9455 791.4474,245.2155 " fill="none" id="R3-to-MULTI" style="stroke:#000000;stroke-width:1.0;"/><polygon fill="#000000" points="795.75,249.3973,792.084,240.2562,792.1645,245.9125,786.5082,245.993,795.75,249.3973" style="stroke:#000000;stroke-width:1.0;"/><text fill="#000000" font-family="Verdana" font-size="13" lengthAdjust="spacing" textLength="69" x="445" y="194.8371">&#1088;&#1077;&#1072;&#1083;&#1080;&#1079;&#1091;&#1077;&#1090;</text></g><!--link R4 to ES--><g id="link_R4_ES"><path d="M607.62,149.1473 C625.05,158.5073 645.83,167.9173 666,172.7673 C683.93,177.0773 1314.83,170.2673 1330,180.7673 C1352.22,196.1473 1360.7316,220.2896 1364.8416,243.4496 " fill="none" id="R4-to-ES" style="stroke:#000000;stroke-width:1.0;"/><polygon fill="#000000" points="1365.89,249.3573,1368.2559,239.7968,1365.0163,244.4342,1360.379,241.1947,1365.89,249.3573" style="stroke:#000000;stroke-width:1.0;"/><text fill="#000000" font-family="Verdana" font-size="13" lengthAdjust="spacing" textLength="93" x="1346.96" y="194.8371">&#1086;&#1073;&#1077;&#1089;&#1087;&#1077;&#1095;&#1080;&#1074;&#1072;&#1077;&#1090;</text></g><!--link P1 to CACHE--><g id="link_P1_CACHE"><path d="M899.6,149.2273 C896.88,164.3073 896.13,183.0573 904,197.7673 C907.02,203.4173 910.91,201.8773 916,205.7673 C933.79,219.3673 948.1573,231.5779 963.6573,245.4379 " fill="none" id="P1-to-CACHE" style="stroke:#000000;stroke-width:1.0;"/><polygon fill="#000000" points="968.13,249.4373,964.0873,240.4564,964.4028,246.1045,958.7547,246.4199,968.13,249.4373" style="stroke:#000000;stroke-width:1.0;"/><text fill="#000000" font-family="Verdana" font-size="13" lengthAdjust="spacing" textLength="59" x="905" y="194.8371">&#1088;&#1077;&#1096;&#1077;&#1085;&#1080;&#1077;</text></g><!--link P2 to CACHE--><g id="link_P2_CACHE"><path d="M774.13,148.9873 C787.46,166.0073 807.19,186.9573 830,197.7673 C864.69,214.2073 880.72,190.6373 916,205.7673 C938.76,215.5273 955.6142,229.3386 971.1842,245.3286 " fill="none" id="P2-to-CACHE" style="stroke:#000000;stroke-width:1.0;"/><polygon fill="#000000" points="975.37,249.6273,971.9571,240.3887,971.8818,246.045,966.2255,245.9698,975.37,249.6273" style="stroke:#000000;stroke-width:1.0;"/><text fill="#000000" font-family="Verdana" font-size="13" lengthAdjust="spacing" textLength="59" x="831" y="194.8371">&#1088;&#1077;&#1096;&#1077;&#1085;&#1080;&#1077;</text></g><!--link P3 to APIGW--><g id="link_P3_APIGW"><path d="M1318.06,149.2173 C1340.93,158.3973 1367.73,167.6673 1393,172.7673 C1404.34,175.0573 1592.98,172.4373 1601,180.7673 C1619.55,200.0473 1607.8929,223.5411 1590.0329,245.0511 " fill="none" id="P3-to-APIGW" style="stroke:#000000;stroke-width:1.0;"/><polygon fill="#000000" points="1586.2,249.6673,1595.0268,245.2983,1589.3941,245.8205,1588.8718,240.1878,1586.2,249.6673" style="stroke:#000000;stroke-width:1.0;"/><text fill="#000000" font-family="Verdana" font-size="13" lengthAdjust="spacing" textLength="93" x="1610.09" y="194.8371">&#1086;&#1073;&#1077;&#1089;&#1087;&#1077;&#1095;&#1080;&#1074;&#1072;&#1077;&#1090;</text></g><!--link P4 to QUEUE--><g id="link_P4_QUEUE"><path d="M1021.2,148.9373 C1004.52,163.9173 991.27,182.6673 1005,197.7673 C1017.61,211.6373 1071.62,198.7373 1089,205.7673 C1113.2,215.5473 1131.7755,229.5821 1148.9655,245.5621 " fill="none" id="P4-to-QUEUE" style="stroke:#000000;stroke-width:1.0;"/><polygon fill="#000000" points="1153.36,249.6473,1149.4917,240.5899,1149.6979,246.243,1144.0448,246.4492,1153.36,249.6473" style="stroke:#000000;stroke-width:1.0;"/><text fill="#000000" font-family="Verdana" font-size="13" lengthAdjust="spacing" textLength="61" x="1006" y="194.8371">&#1091;&#1089;&#1082;&#1086;&#1088;&#1103;&#1077;&#1090;</text></g><!--link C1 to APIGW--><g id="link_C1_APIGW"><path d="M1507.45,149.0973 C1521.45,158.3273 1538.25,167.6573 1555,172.7673 C1574.26,178.6373 1722.08,166.2273 1736,180.7673 C1741.22,186.2273 1741.09,192.1873 1736,197.7673 C1722.92,212.1073 1667.01,198.5173 1649,205.7673 C1624.79,215.5073 1606.2033,229.5409 1589.0233,245.5209 " fill="none" id="C1-to-APIGW" style="stroke:#000000;stroke-width:1.0;"/><polygon fill="#000000" points="1584.63,249.6073,1593.9442,246.4065,1588.2911,246.2019,1588.4957,240.5488,1584.63,249.6073" style="stroke:#000000;stroke-width:1.0;"/><text fill="#000000" font-family="Verdana" font-size="13" lengthAdjust="spacing" textLength="69" x="1740.87" y="194.8371">&#1079;&#1072;&#1097;&#1080;&#1097;&#1072;&#1077;&#1090;</text></g><!--link C1 to QUEUE--><g id="link_C1_QUEUE"><path d="M1428.47,149.2173 C1410.6,158.4673 1389.44,167.7773 1369,172.7673 C1354.91,176.2073 1118.1,170.3573 1108,180.7673 C1087.45,201.9573 1105.225,225.0964 1130.795,245.6664 " fill="none" id="C1-to-QUEUE" style="stroke:#000000;stroke-width:1.0;"/><polygon fill="#000000" points="1135.47,249.4273,1130.9647,240.6693,1131.5741,246.2933,1125.9502,246.9027,1135.47,249.4273" style="stroke:#000000;stroke-width:1.0;"/><text fill="#000000" font-family="Verdana" font-size="13" lengthAdjust="spacing" textLength="80" x="1109" y="194.8371">&#1073;&#1091;&#1092;&#1077;&#1088;&#1080;&#1079;&#1091;&#1077;&#1090;</text></g><!--link C3 to QUEUE--><g id="link_C3_QUEUE"><path d="M1987.9,149.0773 C1972.24,158.4273 1953.46,167.8473 1935,172.7673 C1887.97,185.2973 1544.89,172.0873 1497,180.7673 C1474.73,184.8073 1471.21,193.4173 1449,197.7673 C1411.67,205.0873 1313.64,192.4573 1278,205.7673 C1253.2,215.0373 1234.1766,229.2637 1216.8066,245.4737 " fill="none" id="C3-to-QUEUE" style="stroke:#000000;stroke-width:1.0;"/><polygon fill="#000000" points="1212.42,249.5673,1221.729,246.3512,1216.0755,246.1559,1216.2708,240.5025,1212.42,249.5673" style="stroke:#000000;stroke-width:1.0;"/><text fill="#000000" font-family="Verdana" font-size="13" lengthAdjust="spacing" textLength="94" x="1498" y="194.8371">&#1082;&#1086;&#1084;&#1087;&#1077;&#1085;&#1089;&#1080;&#1088;&#1091;&#1077;&#1090;</text></g><!--link C4 to CACHE--><g id="link_C4_CACHE"><path d="M1778.49,149.2473 C1759.7,158.5573 1737.42,167.9073 1716,172.7673 C1662.9,184.8273 1278.73,167.1773 1226,180.7673 C1210.41,184.7873 1209.47,193.2873 1194,197.7673 C1148.62,210.9073 1131.58,187.5273 1088,205.7673 C1065.15,215.3273 1048.2877,229.1307 1032.7377,245.1607 " fill="none" id="C4-to-CACHE" style="stroke:#000000;stroke-width:1.0;"/><polygon fill="#000000" points="1028.56,249.4673,1037.6976,245.7925,1032.0414,245.8784,1031.9554,240.2222,1028.56,249.4673" style="stroke:#000000;stroke-width:1.0;"/><text fill="#000000" font-family="Verdana" font-size="13" lengthAdjust="spacing" textLength="94" x="1227" y="194.8371">&#1082;&#1086;&#1084;&#1087;&#1077;&#1085;&#1089;&#1080;&#1088;&#1091;&#1077;&#1090;</text></g><!--link S1 to APIGW--><g id="link_S1_APIGW"><path d="M2315.49,149.0473 C2302.45,157.4073 2287.46,166.1873 2273,172.7673 C2238.33,188.5573 2228.64,191.8773 2191,197.7673 C2161.25,202.4273 1677.35,195.6073 1649,205.7673 C1624.04,214.7173 1605.0488,229.1031 1587.8788,245.5031 " fill="none" id="S1-to-APIGW" style="stroke:#000000;stroke-width:1.0;"/><polygon fill="#000000" points="1583.54,249.6473,1592.811,246.3235,1587.1557,246.1938,1587.2854,240.5384,1583.54,249.6473" style="stroke:#000000;stroke-width:1.0;"/><text fill="#000000" font-family="Verdana" font-size="13" lengthAdjust="spacing" textLength="69" x="2255.77" y="194.8371">&#1088;&#1077;&#1072;&#1083;&#1080;&#1079;&#1091;&#1077;&#1090;</text></g><!--link S2 to MICRO--><g id="link_S2_MICRO"><path d="M2494.88,149.1773 C2465.93,166.6473 2425.21,188.0473 2386,197.7673 C2342.1,208.6573 2021.38,189.9473 1979,205.7673 C1954.99,214.7273 1937.0591,228.8112 1920.7291,245.0912 " fill="none" id="S2-to-MICRO" style="stroke:#000000;stroke-width:1.0;stroke-dasharray:7.0,7.0;"/><polygon fill="#000000" points="1916.48,249.3273,1925.6778,245.8059,1920.021,245.7972,1920.0296,240.1403,1916.48,249.3273" style="stroke:#000000;stroke-width:1.0;"/><text fill="#000000" font-family="Verdana" font-size="13" lengthAdjust="spacing" textLength="75" x="2434.36" y="194.8371">&#1080;&#1089;&#1087;&#1086;&#1083;&#1100;&#1079;&#1091;&#1077;&#1090;</text></g><!--link S3 to ES--><g id="link_S3_ES"><path d="M2167.37,149.2273 C2152.05,158.3573 2133.85,167.5873 2116,172.7673 C2086.5,181.3373 2008.61,178.2473 1978,180.7673 C1907.17,186.6073 1889.92,193.1973 1819,197.7673 C1799.09,199.0473 1478.7,198.8173 1460,205.7673 C1435.82,214.7573 1417.6761,228.8584 1401.1361,245.1384 " fill="none" id="S3-to-ES" style="stroke:#000000;stroke-width:1.0;"/><polygon fill="#000000" points="1396.86,249.3473,1406.0801,245.8847,1400.4234,245.8399,1400.4682,240.1832,1396.86,249.3473" style="stroke:#000000;stroke-width:1.0;"/><text fill="#000000" font-family="Verdana" font-size="13" lengthAdjust="spacing" textLength="93" x="1979" y="194.8371">&#1086;&#1073;&#1077;&#1089;&#1087;&#1077;&#1095;&#1080;&#1074;&#1072;&#1077;&#1090;</text></g><!--link S3 to MON--><g id="link_S3_MON"><path d="M2172.7,149.2473 C2148.72,166.6273 2114.77,187.8973 2081,197.7673 C2050.91,206.5673 1827.79,193.3573 1799,205.7673 C1777.69,214.9473 1762.993,228.6265 1749.693,244.8565 " fill="none" id="S3-to-MON" style="stroke:#000000;stroke-width:1.0;"/><polygon fill="#000000" points="1745.89,249.4973,1754.6884,245.0714,1749.0592,245.63,1748.5006,240.0007,1745.89,249.4973" style="stroke:#000000;stroke-width:1.0;"/><text fill="#000000" font-family="Verdana" font-size="13" lengthAdjust="spacing" textLength="60" x="2122.46" y="194.8371">&#1083;&#1086;&#1075;&#1080;&#1088;&#1091;&#1077;&#1090;</text></g><!--link APIGW to GMN47--><g id="link_APIGW_GMN47"><path d="M1582.53,249.3773 C1603.13,227.7673 1633.38,201.2173 1666.5,189.2673 C1729.52,166.5273 2205.03,171.0373 2269.5,189.2673 C2298.42,197.4473 2327.26,212.9173 2351.83,228.9073 " fill="none" id="APIGW-GMN47" style="stroke:#000000;stroke-width:1.0;stroke-dasharray:7.0,7.0;"/></g><!--link CACHE to GMN50--><g id="link_CACHE_GMN50"><path d="M1027.08,249.4273 C1045.98,227.8473 1073.98,201.3073 1105.5,189.2673 C1149.88,172.3273 1914.43,177.6973 1960.5,189.2673 C2003.68,200.1173 2047.83,224.0873 2080.66,244.9073 " fill="none" id="CACHE-GMN50" style="stroke:#000000;stroke-width:1.0;stroke-dasharray:7.0,7.0;"/></g><!--link QUEUE to GMN53--><g id="link_QUEUE_GMN53"><path d="M1210.83,249.3673 C1231.65,227.7573 1262.17,201.2073 1295.5,189.2673 C1360.35,166.0273 2469.1,170.9073 2535.5,189.2673 C2570,198.8073 2604.55,218.3173 2632.2,236.9773 " fill="none" id="QUEUE-GMN53" style="stroke:#000000;stroke-width:1.0;stroke-dasharray:7.0,7.0;"/></g><!--link GMN53 to GMN56--><g id="link_GMN53_GMN56"><path d="M2690,326.6273 C2690,347.9673 2690,373.5573 2690,394.8973 " fill="none" id="GMN53-GMN56" style="stroke:#000000;stroke-width:1.0;stroke-dasharray:7.0,7.0;"/></g><!--SRC=[ZLTRJnjN47xthvWILKc8kDaqAQYA18wTfe5WxAHzySjY5bXXxwBrEb5KHUAIgq83ILkrYX9I-b3rqI5S70URlt3sB_INz9ivkyPhx2WWCEoPyytCDz-PC_kLjsIMJ5ef6fOTyoolQ99wfJwfch-b6ggc3WWV1_v3VmEVTVyn7ZNnLrLzyZTLmt_kFo9_tLzL1-ez5lQmmBi-yguggQg_wZy2rZhMwx3RmFyRDFrZ9bPUjkmLmpLAD6SKbXTTfsBF9vsYuzAvT8g_Ox7pTCrSi6oJRgMpL30ySz5nBRCSMy46Oz6aFlKMxlO1VGXlJNyD3ZRfGjOiMiQSLRIy-nVxW9PENKvTffzZHAvPy0nx4IdsvQOcQ6niSEphl0q4lNT3dOGugjP7Hfco8xn_35_HtUelE4Q-CAnIV7JeYhQEzx1-1mAPeJf8U-4_mL_2B5mpIR9q92Pxp2YJzu_QKRzfq4HtqEpj6VgEHWXmLNyjRsSpylytf8w1tT1xHrjx7yJQQ7i7LqrO7S5X4-dh-aX1JsdCcEw2uvOCks0oZQdBJ6GdZMe7M-ii5rNFs_0_F5mgY-yCg1iRO-yTE_u0THzO1d1Vv_JNH3-Y6_ynWyJnZDdIEF7kEF0qV8aa_0OBJrWy5cf5bI3t1CyvgICjJ9qaVZvgu4IF07VKUub7rvT3148Lnu79GfPg3uhdDOBkS3nOW0r_KuEEja0ZZEzmoa6EGVtzBPPgsNEjWcSvTZdKQZfzXkIt-XI6l1roBluc8jbMBzMkNZh1qfOwnWbx8P4a0-ccqnrWVuBSCymmsenh58hcq7IEShDJ6YFU7MFIy0fBn38JJYKrxWp-LjuU8KdqQ2Z2IpBH8vfNh7i-RqnqA44v6iUiQ_yf7p6KeYQI3TiBw93KDVPe2pl2-KivLaqa2w1sPUVCGiLjTOVqHFBQ6SR_XSE7KPTvM-lKVwY3fGktft8N9OASS7tjol1m1yokUgDs1uJkVIIo9uVyK3CJT02Exo0aC91cBju3RnlLb-DA43pEYCYyAqAYXV2WhP4QRc79yW1OSOqYbPrYHQJNHjhssOOjFUb0sfJ_DDIkxWY9GAm5fxJYsARjKTz4vWPTHw- -PzpFsvTeoZ7cQT8eSXjn9JGONF-9pdrx9PbAJKRtPirv2_Kq2aicydhj_m9_7ONN5Pz8Vf_g3Z5jbikSoMp5h00aQypDMTxqxD1DOs7PaCspTr9tUcn6jL1QTYZaSZ-kGJJFy_OFnbrZA7bE0APl9BCpFRnNYfureBitz287GLSTL3xlo6BwpjJj6zrnafPRg5WUJRgciMowUJjZU9xfsZhxoUwRKdVv8-TKt89bBpBvoTbiJhQaSZtYTMpBmwNAvgcfcvJp80GTtCojrXQj8DUu1oqM3L7CahLIZk5s71Yu6kGntXe3eD43VprSHRHdb-AVtPY8hl9QLQwOez1YL2oGrJZV0E_nS4qEmHCOCSbi5Ci40OXOnYFwLGUnJFopgpe6hTNFECdeIBIcWB81cphamxrOWaYEH87u9da6LJqB08Br4819G8DXxPsccqn4RU00tV54skiQ7v3GRZIIKa-xM2uQL1U6qO461wy6KWTKhVtI26qINr25m8Zb1AjFiFlG7ibvcfYV9zlnCDRnRtAjnIMFd0KT7DJQtz_MKNhw6U_lX-r_gt-J-fqx95-9k63bddwYx_0zz3MU5ggXuKl9kHgI8rr6B1kH2QKMs6SH0XMjakNXk0JFS0CGpcN9ikLOXCXeqz90-NgiXVU5lY1ZfgtpZNNaArMJVBitlb2XdUc-WPzz6MiQGTAiiOu9YwS3FDmJDXeI3w13Y5rvT1YA_mm1mImlDswBFCnOChZfURLvEWPIC0Nsp5Hqh3FTuM58vBVFRheK5_DoUxRRN2lm-aZ8QMNSx1pPJiDiEqvX3NfLMFtAxokYYFK8_O6Nu3r1Y6ppyJfop48VSpmZ3GZnJJn2MbXaqZjecNCypoc5XL-LgrTcHEaaN0v- - -4I0nGlJfgCaK5glS7G01Dm4j38Sxpq7dbl4sQqxci8CXo18gyS4Q51eKJnGU8nNHhLUglqf6VUaw1YxG8PwEZXfFEMUVnG3eCM7f_-9kiHZK0y9U3fIzv60arrSLG_UrW4UNIG9dK9cbrdxtOa5XdfyPDzyyWZhmir_KB6hxZjryF7qnh-3m00]--></g></svg>